<svg id="Layer_1" data-name="Layer 1" xmlns="http://www.w3.org/2000/svg" viewBox="0 0 194.97 152.42"><defs><style>.cls-1,.cls-10,.cls-100,.cls-101,.cls-102,.cls-103,.cls-104,.cls-105,.cls-106,.cls-107,.cls-11,.cls-12,.cls-13,.cls-14,.cls-15,.cls-16,.cls-17,.cls-18,.cls-19,.cls-2,.cls-20,.cls-21,.cls-22,.cls-23,.cls-24,.cls-25,.cls-26,.cls-27,.cls-28,.cls-29,.cls-3,.cls-30,.cls-31,.cls-32,.cls-33,.cls-34,.cls-35,.cls-36,.cls-37,.cls-38,.cls-39,.cls-4,.cls-40,.cls-41,.cls-42,.cls-43,.cls-44,.cls-45,.cls-46,.cls-47,.cls-48,.cls-49,.cls-5,.cls-50,.cls-51,.cls-52,.cls-53,.cls-54,.cls-55,.cls-56,.cls-57,.cls-58,.cls-59,.cls-6,.cls-60,.cls-61,.cls-62,.cls-63,.cls-64,.cls-65,.cls-66,.cls-67,.cls-68,.cls-69,.cls-7,.cls-70,.cls-71,.cls-72,.cls-73,.cls-74,.cls-75,.cls-76,.cls-77,.cls-78,.cls-79,.cls-8,.cls-80,.cls-81,.cls-82,.cls-83,.cls-84,.cls-85,.cls-86,.cls-87,.cls-88,.cls-89,.cls-9,.cls-90,.cls-91,.cls-92,.cls-93,.cls-94,.cls-95,.cls-96,.cls-97,.cls-98,.cls-99{fill:none;stroke-width:0.3px;}.cls-1{stroke:#5d5850;}.cls-1,.cls-6{stroke-opacity:0.02;}.cls-2{stroke:#425c3f;}.cls-17,.cls-2,.cls-48{stroke-opacity:0.99;}.cls-3{stroke:#62725f;}.cls-3,.cls-36{stroke-opacity:0.35;}.cls-4{stroke:#4c4d38;stroke-opacity:0.44;}.cls-5{stroke:#25280f;}.cls-12,.cls-43,.cls-5{stroke-opacity:0.98;}.cls-6{stroke:#5d5f5d;}.cls-7{stroke:#80957c;stroke-opacity:0.38;}.cls-8{stroke:#7c9570;}.cls-107,.cls-34,.cls-38,.cls-8{stroke-opacity:0;}.cls-9{stroke:#2a3017;}.cls-10{stroke:#2c341e;}.cls-11{stroke:#5b5b4a;}.cls-11,.cls-21{stroke-opacity:0.21;}.cls-12,.cls-28{stroke:#26280f;}.cls-13{stroke:#707e70;stroke-opacity:0.31;}.cls-14{stroke:#5d755b;stroke-opacity:0.11;}.cls-15{stroke:#507051;stroke-opacity:0.89;}.cls-16{stroke:#687c63;}.cls-16,.cls-26{stroke-opacity:0.36;}.cls-17{stroke:#282d15;}.cls-18{stroke:#4a4a30;stroke-opacity:0.4;}.cls-19{stroke:#3c5134;}.cls-20{stroke:#5a6858;stroke-opacity:0.1;}.cls-21{stroke:#505143;}.cls-22{stroke:#2d3921;}.cls-23{stroke:#2b331c;}.cls-24{stroke:#44673e;stroke-opacity:0.06;}.cls-25{stroke:#4d6547;stroke-opacity:0.07;}.cls-26{stroke:#51654c;}.cls-27{stroke:#282f15;}.cls-29{stroke:#486548;stroke-opacity:0.91;}.cls-30{stroke:#28311b;}.cls-31{stroke:#333b31;stroke-opacity:0.03;}.cls-32{stroke:#3a4f33;}.cls-33{stroke:#557054;stroke-opacity:0.66;}.cls-34{stroke:#fff;}.cls-35{stroke:#394a2c;}.cls-36{stroke:#4c4d3c;}.cls-37{stroke:#292f18;}.cls-38{stroke:lime;}.cls-39{stroke:#606152;stroke-opacity:0.14;}.cls-40{stroke:#262a11;}.cls-41{stroke:#2a3319;}.cls-42{stroke:#374325;}.cls-43{stroke:#3b4d30;}.cls-44{stroke:#70816e;}.cls-44,.cls-51,.cls-53{stroke-opacity:0.01;}.cls-45{stroke:#321c04;stroke-opacity:0.96;}.cls-46{stroke:#6b6358;stroke-opacity:0.18;}.cls-47{stroke:#334228;}.cls-48{stroke:#384020;}.cls-49{stroke:#3d3a17;}.cls-50{stroke:#352505;}.cls-51{stroke:#5d675b;}.cls-52{stroke:#daba80;}.cls-53{stroke:#567232;}.cls-54{stroke:#bea570;}.cls-55{stroke:#745939;}.cls-56{stroke:#ac844c;}.cls-57{stroke:#debb80;}.cls-58{stroke:#9e8053;}.cls-59{stroke:#e4bd83;}.cls-60{stroke:#6e552b;}.cls-61{stroke:#473b1f;}.cls-62{stroke:#5f4c28;}.cls-63{stroke:#816737;}.cls-64{stroke:#3a3511;}.cls-65{stroke:#756236;}.cls-66{stroke:#716239;}.cls-67{stroke:#7c6d41;}.cls-68{stroke:#7a5f32;}.cls-69{stroke:#342002;}.cls-70{stroke:#c29c63;}.cls-71{stroke:#493c34;stroke-opacity:0.22;}.cls-72{stroke:#d9ac6c;}.cls-73{stroke:#553f1f;}.cls-74{stroke:#554221;}.cls-75{stroke:#8f6f42;}.cls-76{stroke:#82612f;}.cls-77{stroke:#ad8a55;}.cls-78{stroke:#af8b55;}.cls-79{stroke:#816133;}.cls-80{stroke:#a08155;}.cls-81{stroke:#795d35;}.cls-82{stroke:#341a02;}.cls-83{stroke:#614524;}.cls-84{stroke:#070000;}.cls-85{stroke:#88673f;}.cls-86{stroke:#361c01;}.cls-87{stroke:#0a0000;}.cls-88{stroke:#000;}.cls-89{stroke:#d3ae78;}.cls-90{stroke:#e1b87c;}.cls-91{stroke:#9f804f;}.cls-92{stroke:#281a09;}.cls-93{stroke:#493617;}.cls-94{stroke:#6c5227;}.cls-95{stroke:#8f6b3a;}.cls-96{stroke:#331a05;}.cls-97{stroke:#bf975e;}.cls-98{stroke:#100000;}.cls-99{stroke:#5c3c17;}.cls-100{stroke:#1e0500;}.cls-101{stroke:#795930;}.cls-102{stroke:#5a3c18;}.cls-103{stroke:#68461f;}.cls-104{stroke:#4e3422;stroke-opacity:0.42;}.cls-105{stroke:#4f3423;stroke-opacity:0.71;}.cls-106{stroke:#bfa597;stroke-opacity:0.05;}.cls-107{stroke:#e8d38d;}.cls-108{fill:#5d5850;}.cls-108,.cls-113{fill-opacity:0.02;}.cls-109{fill:#425c3f;}.cls-109,.cls-124,.cls-155{fill-opacity:0.99;}.cls-110{fill:#62725f;}.cls-110,.cls-143{fill-opacity:0.35;}.cls-111{fill:#4c4d38;fill-opacity:0.44;}.cls-112{fill:#25280f;}.cls-112,.cls-119,.cls-150{fill-opacity:0.98;}.cls-113{fill:#5d5f5d;}.cls-114{fill:#80957c;fill-opacity:0.38;}.cls-115{fill:#7c9570;}.cls-115,.cls-141,.cls-145,.cls-213{fill-opacity:0;}.cls-116{fill:#2a3017;}.cls-117{fill:#2c341e;}.cls-118{fill:#5b5b4a;}.cls-118,.cls-128{fill-opacity:0.21;}.cls-119,.cls-135{fill:#26280f;}.cls-120{fill:#707e70;fill-opacity:0.31;}.cls-121{fill:#5d755b;fill-opacity:0.11;}.cls-122{fill:#507051;fill-opacity:0.89;}.cls-123{fill:#687c63;}.cls-123,.cls-133{fill-opacity:0.36;}.cls-124{fill:#282d15;}.cls-125{fill:#4a4a30;fill-opacity:0.4;}.cls-126{fill:#3c5134;}.cls-127{fill:#5a6858;fill-opacity:0.1;}.cls-128{fill:#505143;}.cls-129{fill:#2d3921;}.cls-130{fill:#2b331c;}.cls-131{fill:#44673e;fill-opacity:0.06;}.cls-132{fill:#4d6547;fill-opacity:0.07;}.cls-133{fill:#51654c;}.cls-134{fill:#282f15;}.cls-136{fill:#486548;fill-opacity:0.91;}.cls-137{fill:#28311b;}.cls-138{fill:#333b31;fill-opacity:0.03;}.cls-139{fill:#3a4f33;}.cls-140{fill:#557054;fill-opacity:0.66;}.cls-141{fill:#fff;}.cls-142{fill:#394a2c;}.cls-143{fill:#4c4d3c;}.cls-144{fill:#292f18;}.cls-145{fill:lime;}.cls-146{fill:#606152;fill-opacity:0.14;}.cls-147{fill:#262a11;}.cls-148{fill:#2a3319;}.cls-149{fill:#374325;}.cls-150{fill:#3b4d30;}.cls-151{fill:#70816e;}.cls-151,.cls-158,.cls-160{fill-opacity:0.01;}.cls-152{fill:#321c04;fill-opacity:0.96;}.cls-153{fill:#6b6358;fill-opacity:0.18;}.cls-154{fill:#334228;}.cls-155{fill:#384020;}.cls-156{fill:#3d3a17;}.cls-157{fill:#352505;}.cls-158{fill:#5d675b;}.cls-159{fill:#daba80;}.cls-160{fill:#567232;}.cls-161{fill:#bea570;}.cls-162{fill:#745939;}.cls-163{fill:#ac844c;}.cls-164{fill:#debb80;}.cls-165{fill:#9e8053;}.cls-166{fill:#e4bd83;}.cls-167{fill:#6e552b;}.cls-168{fill:#473b1f;}.cls-169{fill:#5f4c28;}.cls-170{fill:#816737;}.cls-171{fill:#3a3511;}.cls-172{fill:#756236;}.cls-173{fill:#716239;}.cls-174{fill:#7c6d41;}.cls-175{fill:#7a5f32;}.cls-176{fill:#342002;}.cls-177{fill:#c29c63;}.cls-178{fill:#493c34;fill-opacity:0.22;}.cls-179{fill:#d9ac6c;}.cls-180{fill:#553f1f;}.cls-181{fill:#554221;}.cls-182{fill:#8f6f42;}.cls-183{fill:#82612f;}.cls-184{fill:#ad8a55;}.cls-185{fill:#af8b55;}.cls-186{fill:#816133;}.cls-187{fill:#a08155;}.cls-188{fill:#795d35;}.cls-189{fill:#341a02;}.cls-190{fill:#614524;}.cls-191{fill:#070000;}.cls-192{fill:#88673f;}.cls-193{fill:#361c01;}.cls-194{fill:#0a0000;}.cls-195{fill:#d3ae78;}.cls-196{fill:#e1b87c;}.cls-197{fill:#9f804f;}.cls-198{fill:#281a09;}.cls-199{fill:#493617;}.cls-200{fill:#6c5227;}.cls-201{fill:#8f6b3a;}.cls-202{fill:#331a05;}.cls-203{fill:#bf975e;}.cls-204{fill:#100000;}.cls-205{fill:#5c3c17;}.cls-206{fill:#1e0500;}.cls-207{fill:#795930;}.cls-208{fill:#5a3c18;}.cls-209{fill:#68461f;}.cls-210{fill:#4e3422;fill-opacity:0.42;}.cls-211{fill:#4f3423;fill-opacity:0.71;}.cls-212{fill:#bfa597;fill-opacity:0.05;}.cls-213{fill:#e8d38d;}</style></defs><path class="cls-1" d="M118.66,32.22c.91-.69,3.11-.85,4-2,.24-.31,0-1,0-1h-3C118.43,29.62,118.54,32.45,118.66,32.22Z" transform="translate(-19.68 -29.07)"/><path class="cls-2" d="M122.66,30.22c6.71.34,6.28,7.76,6,13-4.31-4.21-3.29,4.2-2.67,7.67a56.17,56.17,0,0,0,3.67,12.33c-5.64-4.58-7-4.46-6-13s-4.16-2.85-7.68,1.32-6.24,9.31-4.3,14.7c4.8-2.74,2-9.9,6-14,3.46,5.33-.42,11.71-3,17-.14,4,3.75,7,7,5,1.32-2.47,4-5.38,7-5a4.33,4.33,0,0,1-5,5,15.66,15.66,0,0,0,0,11c1.59,3.35,2.59,1.57,6,3,1.22-3.44-2.06-7.54,0-10,2.22,4.8,5,9.23,8,11,2.93-1.76-1.51-3.8-1-6,5.84-2.31,6.66,7.2,12,4-1-1.35-3.49-2-4-4-5.82-4.73-11.89-7.39-12-16,2.15,2.85,3.45.39,6,0,2,3.32,5.91,5.22,7,9,2,2.93,4.74,5.84,4,10,2.5-1.55,5.5,1,8,2,1.42-1,2.91-3.1,5-3a64.56,64.56,0,0,0,17-18c-2.63,3.59-6.3-.54-9-2-1.1-.6-5-2.12-6-5-.15-.45.18-1.58,0-2-.48-1.14-2.22-2.82-3-4-1.3-2-.93-3.66-4-4a27.29,27.29,0,0,0-3,0c4.86,1.88,5.37,11.25,7,15-4.7-4-4.6-11.06-10-15-2.87-.42-4.2-2.5-5-5s.05-3.75,0-6a14.33,14.33,0,0,0-2,0c-1.58.28-4.52-1.07-6-3h-2c-3.35-1.64-5.9-5.38-9-7h-5s.24.69,0,1m14,8c1.68,3.61,5,6.5,4,11,8.29,4.71,10.28,14.93,17,21-6.59-4.1-13.36-8.77-17-16,2.88.44,3.93,5,7,6-1.12-8.46-14.73-12.62-11-22m-3,2c-.59,2.91,1.59,5.06,1,8-2.09-1.54-3.11-6.2-1-8m0,19c-3,.13-4.1-3.57-4-6,2.4,1.09,2.67,4,4,6m23,4c-3.34-1.81-2.85-6.21-5-9,3.49.76,3.58,6.1,5,9m-16-5c.45,4.28,2.84,7.93,4,12C141.32,67.9,138.31,61.71,140.66,58.22Z" transform="translate(-19.68 -29.07)"/><path class="cls-3" d="M136.66,36.22c-.54-1.86-.86-1.68-2-3-1.41-1.64-1.61-1.82-2-4h-5C130.76,30.84,133.31,34.58,136.66,36.22Z" transform="translate(-19.68 -29.07)"/><path class="cls-4" d="M118.66,32.22c-1,.8-2.11,2.91-3,4,.58-.48,6.61-5.92,7-6C121.77,31.37,119.57,31.53,118.66,32.22Z" transform="translate(-19.68 -29.07)"/><path class="cls-5" d="M115.66,36.22a167.7,167.7,0,0,1-15,16,22.46,22.46,0,0,1-4,3c-5.17,4.18-9.53,5.78-13,11-1.34,2-2.57,3.61-5,4-.49.08-1.58-.18-2,0a2.9,2.9,0,0,0-1,1c-1.06,4.75.91,9.44,1,14-4.06-4.57-1.38,4.35-2,7,1.44,6.11,14.74,20,18,10,1.48,4.94,4.34,11.91,11,10,1.43-3.89-1-6.55,2-10-7.77,5.89-20.65-8.43-13-12-.9-2.39-5.34-.87-5-4,6.71,0,9.48-8.27,5-11,.84-4.34,2.2-3.54,5-1-2-3.79-2.86-4,0-6s1.32-7.07,7-6c-1.57,2.73-3.21,2.25-1,6-7.08.18.85,10.25-2.34,13.68s1.9,14.07,3.34,6.32c-1.81,6,2.65,9.67,8,10-.67-4.68,2.48-3.16,5-2-2.43-3.88,1.31-11-5-10,4.87-5.29,2.58-12.3,2-17,2.58-5.29,6.46-11.67,3-17-4,4.1-1.2,11.26-6,14-1.94-5.39.79-10.53,4.3-14.7s8.65-9.89,7.68-1.32.38,8.44,6,13A56.17,56.17,0,0,1,126,50.89c-.62-3.47-1.64-11.88,2.67-7.67.28-5.24.71-12.66-6-13-.39.08-6.42,5.52-7,6m-8,24c1.08,4,7,9.67,2,13C109.42,69,104.74,64.06,107.66,60.22Z" transform="translate(-19.68 -29.07)"/><path class="cls-6" d="M134.66,33.22c1.14,1.32,1.46,1.14,2,3h1c.15-1.83,2.76-.33,3-2C139.69,33.42,133,32.17,134.66,33.22Z" transform="translate(-19.68 -29.07)"/><path class="cls-7" d="M144.66,39.22c-1.38-.4-.32-1.24-1-2a19.3,19.3,0,0,0-5-1C140.14,38.15,143.08,39.5,144.66,39.22Z" transform="translate(-19.68 -29.07)"/><path class="cls-8" d="M143.66,37.22c.68.76-.38,1.6,1,2a14.33,14.33,0,0,1,2,0C147.24,37.07,143.51,37.18,143.66,37.22Z" transform="translate(-19.68 -29.07)"/><path class="cls-9" d="M136.66,38.22c-3.73,9.38,9.88,13.54,11,22-3.07-1-4.12-5.56-7-6,3.64,7.23,10.41,11.9,17,16-6.72-6.07-8.71-16.29-17-21C141.69,44.72,138.34,41.83,136.66,38.22Z" transform="translate(-19.68 -29.07)"/><path class="cls-10" d="M133.66,40.22c-2.11,1.8-1.09,6.46,1,8C135.25,45.28,133.07,43.13,133.66,40.22Z" transform="translate(-19.68 -29.07)"/><path class="cls-11" d="M37.66,51.22c3.69-.72,8.54-6.43,11-9C44.17,43.84,41.49,48.77,37.66,51.22Z" transform="translate(-19.68 -29.07)"/><path class="cls-12" d="M37.66,51.22a1.56,1.56,0,0,0-1,0c-.54,3.28-2.48,2.27-4,4A120.67,120.67,0,0,0,26.43,66c-1.3,2.69-6.79,7.63-5.77,9.23.61-.79,2.21-1.45,3-2,3.27,2.57,2.24,7.18,4,10,3,4.09,10.26,8,13,13,.46-4.16-4.79-6-5-10,12.66-6.46,4.62,15.79,16,17,5.69-4.64-3-11.54,1.26-15.74s12.18,6.43,15.74,2.74c-4.38-9.26-23.7-9-23-22,5.81,2,6.79,9.1,12,11-2.44-3-2.92-6.25-6.25-8.75s-.63-10.65-5.75-10.25c-1.43-4.88,2.84-6.65,6-8,2.51,3.93-.85,9.64,3,13,1.38-3.61-.89-9.35,0-14-.65-2.63-1-4.9-3-7-1.23-.22-1.33-1.36-2-2a1.89,1.89,0,0,0-1,0c-2.46,2.57-7.31,8.28-11,9m12,28c-4.15,3,2.77,9.36-4,12-4-6.6,2.08-15.09-6-20C43.7,69.94,46.83,77,49.66,79.22Z" transform="translate(-19.68 -29.07)"/><path class="cls-13" d="M51.66,44.22c.48.09,1.84.23,2,0a4.18,4.18,0,0,1,0-1c-.64-1-3-1.07-4-1C50.33,42.86,50.43,44,51.66,44.22Z" transform="translate(-19.68 -29.07)"/><path class="cls-14" d="M53.66,43.22a4.18,4.18,0,0,0,0,1c3,.5,5.86,4.82,8,7-.88-2-4.32-3.61-1-5C56.64,47.2,57.36,40.91,53.66,43.22Z" transform="translate(-19.68 -29.07)"/><path class="cls-15" d="M54.66,51.22c.45,1.83,1.72,4.52,1,7,2.7-2.46,3.85.18,5,2-.91-1.71,1.67-5.58,3-3,.58.7.72,3.06,1,4,1.54,3.82,6.82,9.6,11,10a2.9,2.9,0,0,1,1-1c-1.49-5.41-5.76-14.08-11-15-1.09-.19-.17,1.21-1-1-.79-.95-2.13-1.89-3-3-2.14-2.18-5-6.5-8-7-.16.23-1.52.09-2,0C53.68,46.32,54,48.59,54.66,51.22Z" transform="translate(-19.68 -29.07)"/><path class="cls-16" d="M151.66,50.22a21.45,21.45,0,0,0,3,0,27.29,27.29,0,0,1,3,0c-3.07-1.25-8.92-.94-11-5C147.46,47.72,148.79,49.8,151.66,50.22Z" transform="translate(-19.68 -29.07)"/><path class="cls-17" d="M154.66,50.22a21.45,21.45,0,0,1-3,0c5.4,3.94,5.3,11,10,15C160,61.47,159.52,52.1,154.66,50.22Z" transform="translate(-19.68 -29.07)"/><path class="cls-18" d="M32.66,55.22c1.52-1.73,3.46-.72,4-4A10.88,10.88,0,0,0,32.66,55.22Z" transform="translate(-19.68 -29.07)"/><path class="cls-19" d="M68.66,90.22c1.49,3.15-1.47.68-3,3,3-1.51,8.47,2.85,9-1,.62-2.65-2.06-11.57,2-7-.09-4.56-2.06-9.25-1-14-4.18-.4-9.46-6.18-11-10a53.42,53.42,0,0,0,3,7c-3.52-1.77-9.16-9-4-11-1.33-2.58-3.91,1.29-3,3-1.15-1.82-2.3-4.46-5-2,.72-2.48-.55-5.17-1-7-.89,4.65,1.38,10.39,0,14-3.85-3.36-.49-9.07-3-13-3.16,1.35-7.43,3.12-6,8,5.12-.4,2.42,7.74,5.75,10.25s3.81,5.75,6.25,8.75c-5.21-1.9-6.19-9-12-11C45,81.25,64.28,81,68.66,90.22Z" transform="translate(-19.68 -29.07)"/><path class="cls-20" d="M64.66,54.22c.83,2.21-.09.81,1,1,.15-1.83,2.76-.33,3-2C65.68,54,62.82,49.29,64.66,54.22Z" transform="translate(-19.68 -29.07)"/><path class="cls-21" d="M96.66,55.22a22.46,22.46,0,0,0,4-3C99.2,53.25,98,54.14,96.66,55.22Z" transform="translate(-19.68 -29.07)"/><path class="cls-22" d="M133.66,59.22c-1.33-2-1.6-4.91-4-6C129.56,55.65,130.7,59.35,133.66,59.22Z" transform="translate(-19.68 -29.07)"/><path class="cls-23" d="M156.66,63.22c-1.42-2.9-1.51-8.24-5-9C153.81,57,153.32,61.41,156.66,63.22Z" transform="translate(-19.68 -29.07)"/><path class="cls-24" d="M164.66,58.22c.41.19,1.69-.24,2,0-2.15-2.48-2.54-1.77-5-4C162.44,55.4,164.18,57.08,164.66,58.22Z" transform="translate(-19.68 -29.07)"/><path class="cls-25" d="M188.66,56.22c1.79-.12,1.84.48,3,1,1.69.15,2.6,1.16,4,2C192.84,56,194.3,53.66,188.66,56.22Z" transform="translate(-19.68 -29.07)"/><path class="cls-26" d="M183.66,60.22a7.87,7.87,0,0,1,7-3,7.17,7.17,0,0,0,1,0c-1.16-.52-1.21-1.12-3-1C186.47,57.22,185,57.82,183.66,60.22Z" transform="translate(-19.68 -29.07)"/><path class="cls-27" d="M64.66,61.22c-.28-.94-.42-3.3-1-4-5.16,2,.48,9.23,4,11A53.42,53.42,0,0,1,64.66,61.22Z" transform="translate(-19.68 -29.07)"/><path class="cls-28" d="M183.66,60.22a11.39,11.39,0,0,0-1,3c-.33,1.24-.5,2-3,3a1.45,1.45,0,0,1,0,1,64.56,64.56,0,0,1-17,18c-5.2,3.6-12.61,11.78-14.75,17.25s-19.65,7.85-16.25,13.75c.94.61,3-.47,4,0-2.27,3.54,2.8,5.09,4,8,1.37,2.25,2.33,3.1-1,3a2.89,2.89,0,0,0-1,1c-.69,3.13-.67,8.24,2,10,1.92.21,4,.59,6-1-.74-2.1-1.58-4.74,2-4-.47-2-3.54-2.63-3-5,1.16-.79,2.53,2,3,0-.23-.35,0-1,0-1-1.2-1.48,1-2.7,1-4a11.32,11.32,0,0,0-1-2c-1-2-.54-1.84,2-2-.25-.3,0-1,0-1-2.54-1.3-1.4-1.92-1-4,.11-2.48,0-1.94,1-2,1.23-.08,1.73,2.12,3,2-3.07-4.54-1.24-12.16,4-14-.3,4,2.84,4.88,1,9,5.19-4.51,1.36,4.37,1,7,3.77-4.14,3.5,2.08,1,4,1.56,0,4.29-2.26,4,1,.64-.61,2.49-.77,3-2,1.19,2.13,6.13,7.83,7,3,1.64-1.06.41-3.83,4,0-1.38-3.52-10.68-17.22-6-7-4.93-1-6.75-7.87-5-12,2.92,1.15,6.69,1.43,8,5,2.14-1.91,2.86-3.61,6-2-2-3.43-4.29-7.91-.67-11.67s-1.58-11.07,3.67-12.33c.55,4-1.83,10,3,12-3.94,4.75-.47,11.06-4,15,2.88-.19,3.41,3.33,5,5,2.71-.77,1.86-3.89,2-6-2.75-3.38-5.8-7.86-2-12,3.11,1.73,4.92,5.33,8,7-5-4.64-6.27-10.62-7-17s-4.41-12.32,4-16c-3.8,11.4,9.27,15.68,13,24-3.82-2.51-6.41-7.14-11-8,4.07,3.19,7.64,9.18,13,10-.29-7.63-9.85-10.66-12-17-3-7.4-.91-14.74-5-22A7.87,7.87,0,0,0,183.66,60.22Z" transform="translate(-19.68 -29.07)"/><path class="cls-29" d="M195.66,79.22c3.68,6,17,8.94,18,16,1.5-9.22,1.22-12.47-3-21a6.9,6.9,0,0,1-1-2c-2.37-9.31-6.6-8.55-14-13-1.4-.84-2.31-1.85-4-2a7.17,7.17,0,0,1-1,0c4.09,7.26,2,14.6,5,22m6-6c-.27-2.77-2.22-5.07-2-8,3.93-.34,3.83,6.27,2,8m5,3c2,1.7,3.16,5.89-1,5,3.62,4.32-1,2.09-3,0C203.77,78.77,206,80,206.66,76.22Z" transform="translate(-19.68 -29.07)"/><path class="cls-30" d="M140.66,58.22c-2.35,3.49.66,9.68,4,12C143.5,66.15,141.11,62.5,140.66,58.22Z" transform="translate(-19.68 -29.07)"/><path class="cls-31" d="M164.66,60.22c1.44,1.86,4.34,3.4,6,5-.73-.94-2.17-4.9-4-7-.31-.24-1.59.19-2,0C164.84,58.64,164.51,59.77,164.66,60.22Z" transform="translate(-19.68 -29.07)"/><path class="cls-32" d="M107.66,60.22c-2.92,3.84,1.76,8.78,2,13C114.67,69.89,108.74,64.24,107.66,60.22Z" transform="translate(-19.68 -29.07)"/><path class="cls-33" d="M170.66,65.22c-1.66-1.6-4.56-3.14-6-5C165.65,63.1,169.56,64.62,170.66,65.22Z" transform="translate(-19.68 -29.07)"/><path class="cls-34" d="M74.66,62.22Z" transform="translate(-19.68 -29.07)"/><path class="cls-35" d="M103.66,112.22c-.65,1.76-2.77,2-3,3,0-.4,5.3,1.54,2,4,5.51-3.5,9.07-8.7,14.25-12.75s10.13,8.17,14.75,9.75c-3.4-5.9,14.11-8.29,16.25-13.75s9.55-13.65,14.75-17.25c-2.09-.1-3.58,2-5,3-2.5-1-5.5-3.55-8-2,.74-4.16-2-7.07-4-10,1.36,2.74,2.87,5.74,3,9-1.46-.55-2.18-2.4-4-2,.51,2,3,2.65,4,4-5.34,3.2-6.16-6.31-12-4-.51,2.2,3.93,4.24,1,6-3-1.77-5.78-6.2-8-11-2.06,2.46,1.22,6.56,0,10-3.41-1.43-4.41.35-6-3,.23,2.65-.17,5.35,0,8,3.4-1.91,5.14,4,7,6-3.32.35-3-4.37-6-5-.54,4.21,5.84,8.09,2,12-3.24-10.32-9.38-21.19-5-32-3.25,2-7.14-1-7-5,.58,4.7,2.87,11.71-2,17,6.31-1,2.57,6.12,5,10-2.52-1.16-5.67-2.68-5,2-5.35-.33-9.81-4-8-10-1.44,7.75-6.52-2.89-3.34-6.32s-4.74-13.5,2.34-13.68c-2.21-3.75-.57-3.27,1-6-5.65-1-4.08,4.09-7,6s-2,2.18,0,6c-2.8-2.54-4.16-3.34-5,1,4.48,2.73,1.71,11-5,11-.34,3.13,4.1,1.61,5,4-7.65,3.57,5.23,17.89,13,12C102.65,105.67,105.09,108.33,103.66,112.22Z" transform="translate(-19.68 -29.07)"/><path class="cls-36" d="M179.66,66.22c2.5-1,2.67-1.76,3-3C182,64.27,180.19,64.67,179.66,66.22Z" transform="translate(-19.68 -29.07)"/><path class="cls-37" d="M201.66,73.22c1.83-1.73,1.93-8.34-2-8C199.44,68.15,201.39,70.45,201.66,73.22Z" transform="translate(-19.68 -29.07)"/><path class="cls-38" d="M76.66,66.22Z" transform="translate(-19.68 -29.07)"/><path class="cls-39" d="M78.66,70.22c2.43-.39,3.66-2,5-4A23.13,23.13,0,0,1,78.66,70.22Z" transform="translate(-19.68 -29.07)"/><path class="cls-40" d="M144.66,83.22c1.82-.4,2.54,1.45,4,2-.13-3.26-1.64-6.26-3-9-1.09-3.78-5-5.68-7-9-2.55.39-3.85,2.85-6,0C132.77,75.83,138.84,78.49,144.66,83.22Z" transform="translate(-19.68 -29.07)"/><path class="cls-41" d="M121.66,74.22c-4.38,10.81,1.76,21.68,5,32,3.84-3.91-2.54-7.79-2-12,3,.63,2.68,5.35,6,5-1.86-2-3.6-7.91-7-6-.17-2.65.23-5.35,0-8a15.66,15.66,0,0,1,0-11,4.33,4.33,0,0,0,5-5C125.69,68.84,123,71.75,121.66,74.22Z" transform="translate(-19.68 -29.07)"/><path class="cls-42" d="M49.66,79.22c-2.83-2.24-6-9.28-10-8,8.08,4.91,2,13.4,6,20C52.43,88.58,45.51,82.17,49.66,79.22Z" transform="translate(-19.68 -29.07)"/><path class="cls-43" d="M189.66,108.22c4.14,5.09,8.6,5,15,5,2,1.55-.2,4.9,2,6a112.15,112.15,0,0,0,7-24c-1-7.06-14.32-10-18-16,2.15,6.34,11.71,9.37,12,17-5.36-.82-8.93-6.81-13-10,4.59.86,7.18,5.49,11,8-3.73-8.32-16.8-12.6-13-24-8.41,3.68-4.73,9.62-4,16s2,12.36,7,17c-3.08-1.67-4.89-5.27-8-7C183.86,100.36,186.91,104.84,189.66,108.22Z" transform="translate(-19.68 -29.07)"/><path class="cls-44" d="M209.66,72.22a6.9,6.9,0,0,0,1,2c.54-1.31,1.41-2.44,1-4A5.55,5.55,0,0,0,209.66,72.22Z" transform="translate(-19.68 -29.07)"/><path class="cls-45" d="M20.66,75.22v1c0,2,.11,4,0,6-.85,14.58,3.95,31.14,10,43,1.08,1.58,2.1,2.19,3,4,12,24.17,42.66,48.4,70,48,2.67,0,5.33,0,8,0,4.37,0,9.39.72,13,1,29.24,2.77,62.23-22.81,76-47,.51-2.66-2.2-8.08-3-11,.55,4.87-2.77,8.8-3,13-4.16-1.05-3.14-7.43-4-11-1.64,1-.59,3.61-2,5-1,4.65.21,10.14-3,14-1.79-1.11-.88-5.39-4-5-.07,2.52.93,7.25-3,7-1-4.63-3.34-9-3-14-2.43,4.33-1.95,12.82-7,15,.16-3.76-1.29-8.06-5-8-.29,1.53-.26.93-1,2-1.39,2-3.12,4.63-6,4-1.21,2.13,4.42,2.47,2,4-1.15,2.42-3,.42-4,4-.3,1.49,3.34,10.91,0,12-2.3.75-2.26-10.09-3.71-11.29s4.26-5.42-1.29-7.71c2.69,1.72,4-.84,1-2a22.73,22.73,0,0,0-5-1c-2.71-.33-4.18-.3-5,3-.2,1.34.7,7.86,1,10,.15,1,1.42,3,1,4-1.25,3.11-10.2.28-14,1s-11.47-.37-16,0-11.27-.28-16,0c8,4.18-8.77-.65-4-1,.21-1.81-.44-2.8,1-4,.54-3.08-1.28-7.8,1-10,.26-.25,1,0,1,0-.35-1.86-2.46-1.48-3-3,2.53-2.43,6-4.34,9-6,2-1.1,3.44-.38,4-4,1.48.51.69,5.94,3,3,2.68-1.57,1.47-5,0-7,1.83-2.2,4.19-4.87,6-7s4.16-6.41,6-6c6.2,1.37,11.56,12.21,17,15a2.89,2.89,0,0,1,1-1c-.53-2.51-6.22-7.22-8-9-1.94-1.66-4.11-3.38-6-5-1.74-1.48-4.06-2.83-5-5-4.51-.38-7.74,7.53-11.75,9.25s-7.36,8.62-12.25,8.75c-1.44,0-.85-1.4-2,0-.23.28-1,1-1,1,.5,1.6.85,1.78,2,3-.93,2.17-3,3.11-5,4,3.66,0,5.41,2.64,0,3-1.44,2.41,1.13,1.46,1,3-.2,2.44-1.41,2.92-2,5,.19.32.65.95,1,1,2.69.39-2.62,3-5,2,.08,1.26,2.06.56,2,2-.26,1.93-.3,1.44-2,2,.25.26,0,1,0,1,0,2.3,1,7.7-1,9a3,3,0,0,1-2,0c-3.54-2.3.84-11,0-13-1.54-3.12-5.11-1.69-8-2,3.57-2.65.45-6.21-1-10-.76.85,1.09,3.79-1,4-2.09-2.61.08-6.4-2-9-.71-2.27-3-4.91-2-8-1.87,1.07-1.57,4.38-4,5,.11-3.44-.15-7.44-2-10-.73,2-.54,5.14-3,6-.4-2.3-.46-5.37-2-7-1,3-1.34,8.76-6,8,.66-3.17-1.1-6.61-3-10-2.45,2.45.63,8-3,10-3.68-8.56-5.13-18-7-27-3.62,2.7,1,8.72-5,10,.68-6.76-3.35-12.3-3-19-.73-2.29-1.32-4.66-2-7-1.76-2.82-.73-7.43-4-10-.79.55-2.39,1.21-3,2m170,65c-33.52,49.22-116.6,47.16-149-3,18.12,21.09,44.17,37.13,73,38s57.22-13.4,76-35m-129,7c-4.81,3.82-5.52-3.23,0,0m14,9c-4.37-1.64-8.06-5.75-12-8,4.91-2.06,10.41,3.61,12,8m2,4c-3.72,3.57-4.42-2.85,0,0m39,10c-1.87,3.29-8.47,2.47-11,1,3.71-.7,7.37-2.42,11-1m16,1c-1.29.81-4.87,2.67-6,1C128.08,169.89,130.46,170.56,132.66,171.22Z" transform="translate(-19.68 -29.07)"/><path class="cls-46" d="M20.66,82.22c.11-2,0-4,0-6C18.78,78.62,20.65,80.14,20.66,82.22Z" transform="translate(-19.68 -29.07)"/><path class="cls-47" d="M206.66,76.22c-.66,3.76-2.89,2.55-4,5,2,2.09,6.62,4.32,3,0C209.82,82.11,208.68,77.92,206.66,76.22Z" transform="translate(-19.68 -29.07)"/><path class="cls-48" d="M173.66,122.22c.62,4.37,11.77,8.51,15,5,1.41-1.39.36-4,2-5,.86,3.57-.16,9.95,4,11,.23-4.2,3.55-8.13,3-13,.8,2.92,3.51,8.34,3,11a95.94,95.94,0,0,0,6-12c-2.2-1.1,0-4.45-2-6-6.4,0-10.86.09-15-5-.14,2.11.71,5.23-2,6-1.59-1.67-2.12-5.19-5-5,3.53-3.94.06-10.25,4-15-4.83-2-2.45-8-3-12-5.25,1.26,0,8.57-3.67,12.33s-1.3,8.24.67,11.67c-3.14-1.61-3.86.09-6,2-1.31-3.57-5.08-3.85-8-5-1.75,4.13.07,11,5,12-4.68-10.22,4.62,3.48,6,7C174.07,118.39,175.3,121.16,173.66,122.22Z" transform="translate(-19.68 -29.07)"/><path class="cls-49" d="M29.66,90.22c1.37,4.28,2.44,9.44,4,14,2.18-1.51,1.05-5.46,3-7,4.63,6.32,5.65,15.26,7,22,2.73-3.46,2.75-8.7,4-13,2.57,4.11,3,10.43,6,14,1.25-2.22,3.07-5.06,3-8,1.4,2.38,1.8,6,2,9,3.84.75.06-5.72,4-5,1.06,2.56.55,6.26,3,8,.67-2.56.38-6.06,2-8,2.07,5,.6,10.88,2,16,2.08,2.6-.09,6.39,2,9,2.09-.21.24-3.15,1-4,1-1.16,2.36-1.07,4-1,.68-2.44-6.13-3.58-3-6,1-1.48,2.84-.65,4,0,.45-2.31-2.53-3.07-3-5,.09.44,2.3-4.52,2-4,1.63-2.86,2.14-6.81,6-7,0,2.74,1.63,5.08,1,8,3.49-2.58,1.15-9.48,7-10,2.94,3.63-.19,8.58,3,11,0,.55,0,2.8,0,3,1.15-1.4.56,0,2,0,2.1-.7,3.28-5.76,6-6-1.21-1.4-1-3.26-1-5,.23-1,2.35-1.24,3-3-6.66,1.91-9.52-5.06-11-10-3.26,10-16.56-3.89-18-10-.53,3.85-6-.51-9,1,1.53-2.32,4.49.15,3-3-3.56,3.69-11.52-6.94-15.74-2.74s4.43,11.1-1.26,15.74c-11.38-1.21-3.34-23.46-16-17,.21,4,5.46,5.84,5,10-2.74-5-10-8.91-13-13C28.34,85.56,28.93,87.93,29.66,90.22Z" transform="translate(-19.68 -29.07)"/><path class="cls-50" d="M69.66,132.22c-1.4-5.12.07-11-2-16-1.62,1.94-1.33,5.44-2,8-2.45-1.74-1.94-5.44-3-8-3.94-.72-.16,5.75-4,5-.2-3-.6-6.62-2-9,.07,2.94-1.75,5.78-3,8-3-3.57-3.43-9.89-6-14-1.25,4.3-1.27,9.54-4,13-1.35-6.74-2.37-15.68-7-22-1.95,1.54-.82,5.49-3,7-1.56-4.56-2.63-9.72-4-14-.35,6.7,3.68,12.24,3,19,6-1.28,1.38-7.3,5-10,1.87,9,3.32,18.44,7,27,3.63-2,.55-7.55,3-10,1.9,3.39,3.66,6.83,3,10,4.66.76,5-5,6-8,1.54,1.63,1.6,4.7,2,7,2.46-.86,2.27-4,3-6,1.85,2.56,2.11,6.56,2,10,2.43-.62,2.13-3.93,4-5C66.61,127.31,69,130,69.66,132.22Z" transform="translate(-19.68 -29.07)"/><path class="cls-51" d="M216.66,90.22C213.77,94.13,217.87,96.49,216.66,90.22Z" transform="translate(-19.68 -29.07)"/><path class="cls-52" d="M149.66,112.22c2.91,2.89.36,9,2,12,2-1.77.53-5.48,1-8,1.18,6.48,2.14,15.83,1,22,1,3.64,1.66,4.6,0,8h5c2.42-1.53-3.21-1.87-2-4,2.88.63,4.61-2,6-4-.54.05-3.51-2.58-4-3,7.49,1.5,3.51-6.6,1-9,3.75,1.36,2.08-2.93,4-4v-1c.29-3.26-2.44-1-4-1,2.5-1.92,2.77-8.14-1-4,.36-2.63,4.19-11.51-1-7,1.84-4.12-1.3-5-1-9-5.24,1.84-7.07,9.46-4,14C151.39,114.34,150.89,112.14,149.66,112.22Z" transform="translate(-19.68 -29.07)"/><path class="cls-53" d="M213.66,104.22C211,106,214.63,108.34,213.66,104.22Z" transform="translate(-19.68 -29.07)"/><path class="cls-54" d="M100.66,115.22c0,1.74-.21,3.6,1,5-2.72.24-3.9,5.3-6,6,4.89-.13,8.24-7,12.25-8.75s7.24-9.63,11.75-9.25c2,.17,3.82,3.82,5,5,1.89,1.62,4.06,3.34,6,5,1.43,1.22,4.28,2,4.75,4.25s6,3.17,4.25,1.75c-1.2-2.91-6.27-4.46-4-8-1-.47-3.06.61-4,0-4.62-1.58-9.58-13.81-14.75-9.75s-8.74,9.25-14.25,12.75C106,116.76,100.61,114.82,100.66,115.22Z" transform="translate(-19.68 -29.07)"/><path class="cls-55" d="M124.66,113.22c-1.18-1.18-3-4.83-5-5C120.6,110.39,122.92,111.74,124.66,113.22Z" transform="translate(-19.68 -29.07)"/><path class="cls-56" d="M148.66,114.22a27.9,27.9,0,0,0,1,4s-.25.7,0,1c2.31,2.82-1.17,0-2,2a11.32,11.32,0,0,1,1,2,23,23,0,0,0,0,3c3.83-3,5.66,5.27,3,7a51.19,51.19,0,0,0-4-5c-.47,2-1.84-.79-3,0-.54,2.37,2.53,3,3,5,.25,1.06-.94,6.45-2,7a22.73,22.73,0,0,1,5,1c.2-1.5,3.87-4.16,2-7,1.6.53.72,2.75,1,4,1.14-6.17.18-15.52-1-22-.47,2.52,1,6.23-1,8-1.64-3,.91-9.11-2-12C148.61,112.28,148.77,111.74,148.66,114.22Z" transform="translate(-19.68 -29.07)"/><path class="cls-57" d="M76.66,121.22c1.47.83,3.25,2.07,3,4a4.53,4.53,0,0,0-3-1c-.53-.35-.38,4.87,2,4-2.53,3.44-.13,6.16,1,10,1.77-1.94,2.2-5.18,2-8,2.51,4.46-.36,11.16,2,16,4.27-.42,6.66-6.09,2-7,1.82.55,2.47-1.75,4-2,5.41-.36,3.66-3,0-3,2-.89,4.07-1.83,5-4-1.15-1.22-1.5-1.4-2-3-1.3-3.83.58-.66,1-4-3.19-2.42-.06-7.37-3-11-5.85.52-3.51,7.42-7,10,.63-2.92-1-5.26-1-8C78.8,114.41,78.29,118.36,76.66,121.22Z" transform="translate(-19.68 -29.07)"/><path class="cls-58" d="M114.66,119.22a9.12,9.12,0,0,1,2-1c1.11-.54,2.64-1.55,4-1,0-.25-3.46-3.8,0-4C118.82,112.81,116.53,117.05,114.66,119.22Z" transform="translate(-19.68 -29.07)"/><path class="cls-59" d="M120.66,117.22c.63,3.29,1.56,6.13-4,5v-4a9.12,9.12,0,0,0-2,1c-1.81,2.13-4.17,4.8-6,7,1.47,2,2.68,5.43,0,7,1.58.32,3.16-2,3,1a7.17,7.17,0,0,1,5,0c.67-1.74-.51-4.19,0-6,2.31-.16,6.34-.45,6,3,.5.55-.4,2.36,0,3,1.5-.85,3.21.16,4-1-1.19-3.86,1.22-6,5-5v7c2,.18,3.1,0,4,2,.08.19,1,0,1,0a4.22,4.22,0,0,0,3,1c-2.67-1.76-2.69-6.87-2-10-5.44-2.79-10.8-13.63-17-15C117.2,113.42,120.61,117,120.66,117.22Z" transform="translate(-19.68 -29.07)"/><path class="cls-60" d="M149.66,118.22a27.9,27.9,0,0,1-1-4C148.26,116.3,147.12,116.92,149.66,118.22Z" transform="translate(-19.68 -29.07)"/><path class="cls-61" d="M116.66,118.22v4c5.56,1.13,4.63-1.71,4-5C119.3,116.67,117.77,117.68,116.66,118.22Z" transform="translate(-19.68 -29.07)"/><path class="cls-62" d="M138.66,127.22c3.33.1,2.37-.75,1-3,1.74,1.42-3.77.52-4.25-1.75s-3.32-3-4.75-4.25C132.44,120,138.13,124.71,138.66,127.22Z" transform="translate(-19.68 -29.07)"/><path class="cls-63" d="M147.66,121.22c.83-2,4.31.82,2-2C147.12,119.38,146.69,119.27,147.66,121.22Z" transform="translate(-19.68 -29.07)"/><path class="cls-64" d="M163.66,121.22v1a21.45,21.45,0,0,1,0,3c2.3-3.61,3.18,1.67,4,4h-5c.14,2.9,1.42,4.81,1,7,3.71-.06,5.16,4.24,5,8,5.05-2.18,4.57-10.67,7-15-.34,5,2,9.37,3,14,3.93.25,2.93-4.48,3-7,3.12-.39,2.21,3.89,4,5,3.21-3.86,2-9.35,3-14-3.23,3.51-14.38-.63-15-5-.87,4.83-5.81-.87-7-3C166.15,120.45,164.3,120.61,163.66,121.22Z" transform="translate(-19.68 -29.07)"/><path class="cls-65" d="M74.66,125.22a7.63,7.63,0,0,1,2-1,4.53,4.53,0,0,1,3,1c.25-1.93-1.53-3.17-3-4C77,120.7,74.75,125.66,74.66,125.22Z" transform="translate(-19.68 -29.07)"/><path class="cls-66" d="M162.66,138.22c.74-1.07.71-.47,1-2,.42-2.19-.86-4.1-1-7-.09-1.79.78-2.45,1-4a21.45,21.45,0,0,0,0-3c-1.92,1.07-.25,5.36-4,4,2.51,2.4,6.49,10.5-1,9C159.15,135.64,162.12,138.27,162.66,138.22Z" transform="translate(-19.68 -29.07)"/><path class="cls-67" d="M92.66,127.22s.77-.72,1-1c0-.2,0-2.45,0-3C93.24,126.56,91.36,123.39,92.66,127.22Z" transform="translate(-19.68 -29.07)"/><path class="cls-68" d="M147.66,127.22a5.17,5.17,0,0,1,1-1,23,23,0,0,1,0-3C148.63,124.52,146.46,125.74,147.66,127.22Z" transform="translate(-19.68 -29.07)"/><path class="cls-69" d="M163.66,125.22c-.22,1.55-1.09,2.21-1,4h5C166.84,126.89,166,121.61,163.66,125.22Z" transform="translate(-19.68 -29.07)"/><path class="cls-70" d="M74.66,125.22c.47,1.93,3.45,2.69,3,5-1.16-.65-3-1.48-4,0-.39,2.29,2.07,3.41,4,3-2.4,6.09,3.78,10.22,6,15,1-2.37,5,.46,6-2-.35-.05-.81-.68-1-1-.88-1.51,1.65-3.3,2-5,.13-1.54-2.44-.59-1-3-1.53.25-2.18,2.55-4,2,4.66.91,2.27,6.58-2,7-2.36-4.84.51-11.54-2-16,.2,2.82-.23,6.06-2,8-1.13-3.84-3.53-6.56-1-10-2.38.87-2.53-4.35-2-4A7.63,7.63,0,0,0,74.66,125.22Z" transform="translate(-19.68 -29.07)"/><path class="cls-71" d="M33.66,129.22c-.9-1.81-1.92-2.42-3-4C31.5,126.87,32.8,127.86,33.66,129.22Z" transform="translate(-19.68 -29.07)"/><path class="cls-72" d="M148.66,126.22a5.17,5.17,0,0,0-1,1s-.23.65,0,1a51.19,51.19,0,0,1,4,5C154.32,131.49,152.49,123.18,148.66,126.22Z" transform="translate(-19.68 -29.07)"/><path class="cls-73" d="M116.66,134.22c-.2.51-.71.8-3,1,3.29,1.4,6,.32,9,0-2.33-1.24.16-3.24,0-4,.34-3.45-3.69-3.16-6-3C116.15,130,117.33,132.48,116.66,134.22Z" transform="translate(-19.68 -29.07)"/><path class="cls-74" d="M126.66,133.22c-.15-.5,1.47,2.34,1,2,1.31,0,2.69-.12,4,0v-7C127.88,127.23,125.47,129.36,126.66,133.22Z" transform="translate(-19.68 -29.07)"/><path class="cls-75" d="M72.66,137.22c1.45,3.79,4.57,7.35,1,10,2.89.31,6.46-1.12,8,2,1.73,3.5-1.59,9.42,0,13a3,3,0,0,0,2,0c1.3-2.92-1-6.35,1-9,0,0,.25-.74,0-1-1.76-1.82,1.33-1.17,2-2,.06-1.44-1.92-.74-2-2,2.38,1,7.69-1.61,5-2-1,2.46-5-.37-6,2-2.22-4.78-8.4-8.91-6-15-1.93.41-4.39-.71-4-3-3.13,2.42,3.68,3.56,3,6C75,136.15,73.69,136.06,72.66,137.22Z" transform="translate(-19.68 -29.07)"/><path class="cls-76" d="M101.66,134.22c.33,0,.77.95,1,1,2.7.6,6.23,0,9,0-.23-.34,0-1,0-1,.16-3-1.42-.68-3-1-2.31,2.94-1.52-2.49-3-3C105.1,133.84,103.64,133.12,101.66,134.22Z" transform="translate(-19.68 -29.07)"/><path class="cls-77" d="M122.66,135.22a49.05,49.05,0,0,1,5,0c.47.34-1.15-2.5-1-2-.79,1.16-2.5.15-4,1-.4-.64.5-2.45,0-3C122.82,132,120.33,134,122.66,135.22Z" transform="translate(-19.68 -29.07)"/><path class="cls-78" d="M111.66,134.22s-.23.66,0,1c.5,0,1.5,0,2,0,2.29-.2,2.8-.49,3-1A7.17,7.17,0,0,0,111.66,134.22Z" transform="translate(-19.68 -29.07)"/><path class="cls-79" d="M139.66,138.22a4.22,4.22,0,0,1-3-1,14.79,14.79,0,0,1,2,3h-4c-12.36,1.64-26.51-1.67-38-1-1.3.59-2.42,1.35-4,1,.54,1.52,2.65,1.14,3,3,2.31-.22,4.68.16,7,0-1.43,1.25-3.77,2.4-3,5,0-.09,3.74,1.26,2,3,.61,1.62-3.88,1.2-6,1,5.17,3.83,15.3-.07,22,1s16.5-.13,23-1c-.34-2.39-.58-6.67,0-9,.82-3.3,2.29-3.33,5-3,1.06-.55,2.25-5.94,2-7-3.58-.74-2.74,1.9-2,4-2,1.59-4.08,1.21-6,1m-35,4c1-.29,5.12-.45,6,0,1.41.73-1,7.08,0,9-2.84-2.75-3.69.86-8,0a12.11,12.11,0,0,1,2-9m18,10c-.35-.05-1-.67-1-1-1.33,0-2.67,0-4,0v-6c-2.36,2.36.65,9.44-6,7v-9h28v9Z" transform="translate(-19.68 -29.07)"/><path class="cls-80" d="M92.66,140.22c1.58.35,2.7-.41,4-1s5.25-2.75,6-4c-.23-.05-.67-1-1-1C98.67,135.88,95.19,137.79,92.66,140.22Z" transform="translate(-19.68 -29.07)"/><path class="cls-81" d="M150.66,141.22c3,1.16,1.69,3.72-1,2,5.55,2.29-.16,6.51,1.29,7.71s1.41,12,3.71,11.29c.81-3.77-1.07-8.31,0-12s2.85-1.58,4-4h-5c1.66-3.4,1-4.36,0-8-.28-1.25.6-3.47-1-4C154.53,137.06,150.86,139.72,150.66,141.22Z" transform="translate(-19.68 -29.07)"/><path class="cls-82" d="M96.66,139.22c11.49-.67,25.64,2.64,38,1,1.53-.63,1.79-1.55,1-3-.9-2-2-1.82-4-2-1.31-.12-2.69,0-4,0a49.05,49.05,0,0,0-5,0c-3,.32-5.71,1.4-9,0-.5,0-1.5,0-2,0-2.77,0-6.3.6-9,0C101.91,136.47,98.05,138.58,96.66,139.22Z" transform="translate(-19.68 -29.07)"/><path class="cls-83" d="M190.66,140.22c-18.77,21.59-47.16,35.86-76,35s-54.89-16.9-73-38C74.06,187.38,157.14,189.44,190.66,140.22Z" transform="translate(-19.68 -29.07)"/><path class="cls-84" d="M134.66,140.22h4a14.79,14.79,0,0,0-2-3s-.92.19-1,0C136.45,138.67,136.19,139.59,134.66,140.22Z" transform="translate(-19.68 -29.07)"/><path class="cls-85" d="M88.66,145.22c.59-2.08,1.8-2.56,2-5C90.31,141.92,87.78,143.71,88.66,145.22Z" transform="translate(-19.68 -29.07)"/><path class="cls-86" d="M110.66,142.22c-1,1.43-5,1.69-6,0a12.11,12.11,0,0,0-2,9c4.31.86,5.16-2.75,8,0C109.65,149.3,112.07,143,110.66,142.22Z" transform="translate(-19.68 -29.07)"/><path class="cls-87" d="M110.66,142.22c-.88-.45-5-.29-6,0C105.62,143.91,109.63,143.65,110.66,142.22Z" transform="translate(-19.68 -29.07)"/><path class="cls-88" d="M93.66,153.22c.28-.23.74-.88,1-1,.42-2.93-.27-6,0-9C92.38,145.42,94.2,150.14,93.66,153.22Z" transform="translate(-19.68 -29.07)"/><path class="cls-89" d="M94.66,152.22a1.63,1.63,0,0,1,1,0c2.12.2,6.61.62,6-1-1.69,1.69-2-2.55-2-3-.77-2.6,1.57-3.75,3-5-2.32.16-4.69-.22-7,0,0,0-.74-.25-1,0C94.39,146.18,95.08,149.29,94.66,152.22Z" transform="translate(-19.68 -29.07)"/><path class="cls-90" d="M117.66,145.22c4.16-4.16,6.24,3.84,5,7h17v-9h-28v9c6.65,2.44,3.64-4.64,6-7m17,0c2.75,2.75-2.37,8.95-5.67,5.67S131.93,142.49,134.66,145.22Z" transform="translate(-19.68 -29.07)"/><path class="cls-88" d="M140.66,152.22c.05.35.82.73,1,1-.3-2.14-1.2-8.66-1-10C140.08,145.55,140.32,149.83,140.66,152.22Z" transform="translate(-19.68 -29.07)"/><path class="cls-91" d="M117.66,145.22c.67-.67,3.18.51,4,0v6c0,.33.65.95,1,1C123.9,149.06,121.82,141.06,117.66,145.22Z" transform="translate(-19.68 -29.07)"/><path class="cls-92" d="M121.66,151.22v-6c-.82.51-3.33-.67-4,0v6C119,151.25,120.33,151.19,121.66,151.22Z" transform="translate(-19.68 -29.07)"/><path class="cls-93" d="M134.66,145.22c-2.73-2.73-9,2.39-5.67,5.67S137.41,148,134.66,145.22Z" transform="translate(-19.68 -29.07)"/><path class="cls-94" d="M61.66,147.22C56.14,144,56.85,151,61.66,147.22Z" transform="translate(-19.68 -29.07)"/><path class="cls-95" d="M75.66,156.22c-1.59-4.39-7.09-10.06-12-8C67.6,150.47,71.29,154.58,75.66,156.22Z" transform="translate(-19.68 -29.07)"/><path class="cls-96" d="M101.66,151.22c1.74-1.74-2-3.09-2-3C99.68,148.67,100,152.91,101.66,151.22Z" transform="translate(-19.68 -29.07)"/><path class="cls-88" d="M81.66,162.22c-1.59-3.58,1.73-9.5,0-13C82.5,151.24,78.12,159.92,81.66,162.22Z" transform="translate(-19.68 -29.07)"/><path class="cls-97" d="M84.66,152.22c1.7-.56,1.74-.07,2-2C86,151.05,82.9,150.4,84.66,152.22Z" transform="translate(-19.68 -29.07)"/><path class="cls-98" d="M154.66,162.22c3.34-1.09-.3-10.51,0-12C153.59,153.91,155.47,158.45,154.66,162.22Z" transform="translate(-19.68 -29.07)"/><path class="cls-99" d="M93.66,153.22c-1.44,1.2-.79,2.19-1,4,16.09-3,33.76,2.28,50,0,.42-1-.85-3-1-4-.18-.27-.95-.65-1-1-6.5.87-16.3,2.07-23,1s-16.83,2.83-22-1a1.63,1.63,0,0,0-1,0C94.4,152.34,93.94,153,93.66,153.22Z" transform="translate(-19.68 -29.07)"/><path class="cls-88" d="M83.66,162.22c2-1.3,1-6.7,1-9C82.7,155.87,85,159.3,83.66,162.22Z" transform="translate(-19.68 -29.07)"/><path class="cls-100" d="M142.66,157.22c-16.24,2.28-33.91-3-50,0-4.77.35,12,5.18,4,1,4.73-.28,11.47.37,16,0s12.2.72,16,0S141.41,160.33,142.66,157.22Z" transform="translate(-19.68 -29.07)"/><path class="cls-101" d="M77.66,160.22C73.24,157.37,73.94,163.79,77.66,160.22Z" transform="translate(-19.68 -29.07)"/><path class="cls-102" d="M116.66,170.22c-3.63-1.42-7.29.3-11,1C108.19,172.69,114.79,173.51,116.66,170.22Z" transform="translate(-19.68 -29.07)"/><path class="cls-103" d="M132.66,171.22c-2.2-.66-4.58-1.33-6,1C127.79,173.89,131.37,172,132.66,171.22Z" transform="translate(-19.68 -29.07)"/><path class="cls-104" d="M111.66,178.22a8.34,8.34,0,0,1,0-1c-2.67,0-5.33,0-8,0C105.77,177.43,108.77,178.48,111.66,178.22Z" transform="translate(-19.68 -29.07)"/><path class="cls-105" d="M111.66,178.22c3.93.35,8,0,12,0a5.74,5.74,0,0,1,1,0c-3.61-.28-8.63-1-13-1A8.34,8.34,0,0,0,111.66,178.22Z" transform="translate(-19.68 -29.07)"/><path class="cls-106" d="M123.66,178.22c-4,0-8.07.35-12,0C114.88,178.53,120.35,180.67,123.66,178.22Z" transform="translate(-19.68 -29.07)"/><path class="cls-107" d="M122.66,180.22c-3.18.53-7.57-1.13-10,1C115.84,180.69,120.23,182.35,122.66,180.22Z" transform="translate(-19.68 -29.07)"/><path class="cls-108" d="M118.66,32.22c.91-.69,3.11-.85,4-2,.24-.31,0-1,0-1h-3C118.43,29.62,118.54,32.45,118.66,32.22Z" transform="translate(-19.68 -29.07)"/><path class="cls-109" d="M122.66,30.22c6.71.34,6.28,7.76,6,13-4.31-4.21-3.29,4.2-2.67,7.67a56.17,56.17,0,0,0,3.67,12.33c-5.64-4.58-7-4.46-6-13s-4.16-2.85-7.68,1.32-6.24,9.31-4.3,14.7c4.8-2.74,2-9.9,6-14,3.46,5.33-.42,11.71-3,17-.14,4,3.75,7,7,5,1.32-2.47,4-5.38,7-5a4.33,4.33,0,0,1-5,5,15.66,15.66,0,0,0,0,11c1.59,3.35,2.59,1.57,6,3,1.22-3.44-2.06-7.54,0-10,2.22,4.8,5,9.23,8,11,2.93-1.76-1.51-3.8-1-6,5.84-2.31,6.66,7.2,12,4-1-1.35-3.49-2-4-4-5.82-4.73-11.89-7.39-12-16,2.15,2.85,3.45.39,6,0,2,3.32,5.91,5.22,7,9,2,2.93,4.74,5.84,4,10,2.5-1.55,5.5,1,8,2,1.42-1,2.91-3.1,5-3a64.56,64.56,0,0,0,17-18c-2.63,3.59-6.3-.54-9-2-1.1-.6-5-2.12-6-5-.15-.45.18-1.58,0-2-.48-1.14-2.22-2.82-3-4-1.3-2-.93-3.66-4-4a27.29,27.29,0,0,0-3,0c4.86,1.88,5.37,11.25,7,15-4.7-4-4.6-11.06-10-15-2.87-.42-4.2-2.5-5-5s.05-3.75,0-6a14.33,14.33,0,0,0-2,0c-1.58.28-4.52-1.07-6-3h-2c-3.35-1.64-5.9-5.38-9-7h-5s.24.69,0,1m14,8c1.68,3.61,5,6.5,4,11,8.29,4.71,10.28,14.93,17,21-6.59-4.1-13.36-8.77-17-16,2.88.44,3.93,5,7,6-1.12-8.46-14.73-12.62-11-22m-3,2c-.59,2.91,1.59,5.06,1,8-2.09-1.54-3.11-6.2-1-8m0,19c-3,.13-4.1-3.57-4-6,2.4,1.09,2.67,4,4,6m23,4c-3.34-1.81-2.85-6.21-5-9,3.49.76,3.58,6.1,5,9m-16-5c.45,4.28,2.84,7.93,4,12C141.32,67.9,138.31,61.71,140.66,58.22Z" transform="translate(-19.68 -29.07)"/><path class="cls-110" d="M136.66,36.22c-.54-1.86-.86-1.68-2-3-1.41-1.64-1.61-1.82-2-4h-5C130.76,30.84,133.31,34.58,136.66,36.22Z" transform="translate(-19.68 -29.07)"/><path class="cls-111" d="M118.66,32.22c-1,.8-2.11,2.91-3,4,.58-.48,6.61-5.92,7-6C121.77,31.37,119.57,31.53,118.66,32.22Z" transform="translate(-19.68 -29.07)"/><path class="cls-112" d="M115.66,36.22a167.7,167.7,0,0,1-15,16,22.46,22.46,0,0,1-4,3c-5.17,4.18-9.53,5.78-13,11-1.34,2-2.57,3.61-5,4-.49.08-1.58-.18-2,0a2.9,2.9,0,0,0-1,1c-1.06,4.75.91,9.44,1,14-4.06-4.57-1.38,4.35-2,7,1.44,6.11,14.74,20,18,10,1.48,4.94,4.34,11.91,11,10,1.43-3.89-1-6.55,2-10-7.77,5.89-20.65-8.43-13-12-.9-2.39-5.34-.87-5-4,6.71,0,9.48-8.27,5-11,.84-4.34,2.2-3.54,5-1-2-3.79-2.86-4,0-6s1.32-7.07,7-6c-1.57,2.73-3.21,2.25-1,6-7.08.18.85,10.25-2.34,13.68s1.9,14.07,3.34,6.32c-1.81,6,2.65,9.67,8,10-.67-4.68,2.48-3.16,5-2-2.43-3.88,1.31-11-5-10,4.87-5.29,2.58-12.3,2-17,2.58-5.29,6.46-11.67,3-17-4,4.1-1.2,11.26-6,14-1.94-5.39.79-10.53,4.3-14.7s8.65-9.89,7.68-1.32.38,8.44,6,13A56.17,56.17,0,0,1,126,50.89c-.62-3.47-1.64-11.88,2.67-7.67.28-5.24.71-12.66-6-13-.39.08-6.42,5.52-7,6m-8,24c1.08,4,7,9.67,2,13C109.42,69,104.74,64.06,107.66,60.22Z" transform="translate(-19.68 -29.07)"/><path class="cls-113" d="M134.66,33.22c1.14,1.32,1.46,1.14,2,3h1c.15-1.83,2.76-.33,3-2C139.69,33.42,133,32.17,134.66,33.22Z" transform="translate(-19.68 -29.07)"/><path class="cls-114" d="M144.66,39.22c-1.38-.4-.32-1.24-1-2a19.3,19.3,0,0,0-5-1C140.14,38.15,143.08,39.5,144.66,39.22Z" transform="translate(-19.68 -29.07)"/><path class="cls-115" d="M143.66,37.22c.68.76-.38,1.6,1,2a14.33,14.33,0,0,1,2,0C147.24,37.07,143.51,37.18,143.66,37.22Z" transform="translate(-19.68 -29.07)"/><path class="cls-116" d="M136.66,38.22c-3.73,9.38,9.88,13.54,11,22-3.07-1-4.12-5.56-7-6,3.64,7.23,10.41,11.9,17,16-6.72-6.07-8.71-16.29-17-21C141.69,44.72,138.34,41.83,136.66,38.22Z" transform="translate(-19.68 -29.07)"/><path class="cls-117" d="M133.66,40.22c-2.11,1.8-1.09,6.46,1,8C135.25,45.28,133.07,43.13,133.66,40.22Z" transform="translate(-19.68 -29.07)"/><path class="cls-118" d="M37.66,51.22c3.69-.72,8.54-6.43,11-9C44.17,43.84,41.49,48.77,37.66,51.22Z" transform="translate(-19.68 -29.07)"/><path class="cls-119" d="M37.66,51.22a1.56,1.56,0,0,0-1,0c-.54,3.28-2.48,2.27-4,4A120.67,120.67,0,0,0,26.43,66c-1.3,2.69-6.79,7.63-5.77,9.23.61-.79,2.21-1.45,3-2,3.27,2.57,2.24,7.18,4,10,3,4.09,10.26,8,13,13,.46-4.16-4.79-6-5-10,12.66-6.46,4.62,15.79,16,17,5.69-4.64-3-11.54,1.26-15.74s12.18,6.43,15.74,2.74c-4.38-9.26-23.7-9-23-22,5.81,2,6.79,9.1,12,11-2.44-3-2.92-6.25-6.25-8.75s-.63-10.65-5.75-10.25c-1.43-4.88,2.84-6.65,6-8,2.51,3.93-.85,9.64,3,13,1.38-3.61-.89-9.35,0-14-.65-2.63-1-4.9-3-7-1.23-.22-1.33-1.36-2-2a1.89,1.89,0,0,0-1,0c-2.46,2.57-7.31,8.28-11,9m12,28c-4.15,3,2.77,9.36-4,12-4-6.6,2.08-15.09-6-20C43.7,69.94,46.83,77,49.66,79.22Z" transform="translate(-19.68 -29.07)"/><path class="cls-120" d="M51.66,44.22c.48.09,1.84.23,2,0a4.18,4.18,0,0,1,0-1c-.64-1-3-1.07-4-1C50.33,42.86,50.43,44,51.66,44.22Z" transform="translate(-19.68 -29.07)"/><path class="cls-121" d="M53.66,43.22a4.18,4.18,0,0,0,0,1c3,.5,5.86,4.82,8,7-.88-2-4.32-3.61-1-5C56.64,47.2,57.36,40.91,53.66,43.22Z" transform="translate(-19.68 -29.07)"/><path class="cls-122" d="M54.66,51.22c.45,1.83,1.72,4.52,1,7,2.7-2.46,3.85.18,5,2-.91-1.71,1.67-5.58,3-3,.58.7.72,3.06,1,4,1.54,3.82,6.82,9.6,11,10a2.9,2.9,0,0,1,1-1c-1.49-5.41-5.76-14.08-11-15-1.09-.19-.17,1.21-1-1-.79-.95-2.13-1.89-3-3-2.14-2.18-5-6.5-8-7-.16.23-1.52.09-2,0C53.68,46.32,54,48.59,54.66,51.22Z" transform="translate(-19.68 -29.07)"/><path class="cls-123" d="M151.66,50.22a21.45,21.45,0,0,0,3,0,27.29,27.29,0,0,1,3,0c-3.07-1.25-8.92-.94-11-5C147.46,47.72,148.79,49.8,151.66,50.22Z" transform="translate(-19.68 -29.07)"/><path class="cls-124" d="M154.66,50.22a21.45,21.45,0,0,1-3,0c5.4,3.94,5.3,11,10,15C160,61.47,159.52,52.1,154.66,50.22Z" transform="translate(-19.68 -29.07)"/><path class="cls-125" d="M32.66,55.22c1.52-1.73,3.46-.72,4-4A10.88,10.88,0,0,0,32.66,55.22Z" transform="translate(-19.68 -29.07)"/><path class="cls-126" d="M68.66,90.22c1.49,3.15-1.47.68-3,3,3-1.51,8.47,2.85,9-1,.62-2.65-2.06-11.57,2-7-.09-4.56-2.06-9.25-1-14-4.18-.4-9.46-6.18-11-10a53.42,53.42,0,0,0,3,7c-3.52-1.77-9.16-9-4-11-1.33-2.58-3.91,1.29-3,3-1.15-1.82-2.3-4.46-5-2,.72-2.48-.55-5.17-1-7-.89,4.65,1.38,10.39,0,14-3.85-3.36-.49-9.07-3-13-3.16,1.35-7.43,3.12-6,8,5.12-.4,2.42,7.74,5.75,10.25s3.81,5.75,6.25,8.75c-5.21-1.9-6.19-9-12-11C45,81.25,64.28,81,68.66,90.22Z" transform="translate(-19.68 -29.07)"/><path class="cls-127" d="M64.66,54.22c.83,2.21-.09.81,1,1,.15-1.83,2.76-.33,3-2C65.68,54,62.82,49.29,64.66,54.22Z" transform="translate(-19.68 -29.07)"/><path class="cls-128" d="M96.66,55.22a22.46,22.46,0,0,0,4-3C99.2,53.25,98,54.14,96.66,55.22Z" transform="translate(-19.68 -29.07)"/><path class="cls-129" d="M133.66,59.22c-1.33-2-1.6-4.91-4-6C129.56,55.65,130.7,59.35,133.66,59.22Z" transform="translate(-19.68 -29.07)"/><path class="cls-130" d="M156.66,63.22c-1.42-2.9-1.51-8.24-5-9C153.81,57,153.32,61.41,156.66,63.22Z" transform="translate(-19.68 -29.07)"/><path class="cls-131" d="M164.66,58.22c.41.19,1.69-.24,2,0-2.15-2.48-2.54-1.77-5-4C162.44,55.4,164.18,57.08,164.66,58.22Z" transform="translate(-19.68 -29.07)"/><path class="cls-132" d="M188.66,56.22c1.79-.12,1.84.48,3,1,1.69.15,2.6,1.16,4,2C192.84,56,194.3,53.66,188.66,56.22Z" transform="translate(-19.68 -29.07)"/><path class="cls-133" d="M183.66,60.22a7.87,7.87,0,0,1,7-3,7.17,7.17,0,0,0,1,0c-1.16-.52-1.21-1.12-3-1C186.47,57.22,185,57.82,183.66,60.22Z" transform="translate(-19.68 -29.07)"/><path class="cls-134" d="M64.66,61.22c-.28-.94-.42-3.3-1-4-5.16,2,.48,9.23,4,11A53.42,53.42,0,0,1,64.66,61.22Z" transform="translate(-19.68 -29.07)"/><path class="cls-135" d="M183.66,60.22a11.39,11.39,0,0,0-1,3c-.33,1.24-.5,2-3,3a1.45,1.45,0,0,1,0,1,64.56,64.56,0,0,1-17,18c-5.2,3.6-12.61,11.78-14.75,17.25s-19.65,7.85-16.25,13.75c.94.61,3-.47,4,0-2.27,3.54,2.8,5.09,4,8,1.37,2.25,2.33,3.1-1,3a2.89,2.89,0,0,0-1,1c-.69,3.13-.67,8.24,2,10,1.92.21,4,.59,6-1-.74-2.1-1.58-4.74,2-4-.47-2-3.54-2.63-3-5,1.16-.79,2.53,2,3,0-.23-.35,0-1,0-1-1.2-1.48,1-2.7,1-4a11.32,11.32,0,0,0-1-2c-1-2-.54-1.84,2-2-.25-.3,0-1,0-1-2.54-1.3-1.4-1.92-1-4,.11-2.48,0-1.94,1-2,1.23-.08,1.73,2.12,3,2-3.07-4.54-1.24-12.16,4-14-.3,4,2.84,4.88,1,9,5.19-4.51,1.36,4.37,1,7,3.77-4.14,3.5,2.08,1,4,1.56,0,4.29-2.26,4,1,.64-.61,2.49-.77,3-2,1.19,2.13,6.13,7.83,7,3,1.64-1.06.41-3.83,4,0-1.38-3.52-10.68-17.22-6-7-4.93-1-6.75-7.87-5-12,2.92,1.15,6.69,1.43,8,5,2.14-1.91,2.86-3.61,6-2-2-3.43-4.29-7.91-.67-11.67s-1.58-11.07,3.67-12.33c.55,4-1.83,10,3,12-3.94,4.75-.47,11.06-4,15,2.88-.19,3.41,3.33,5,5,2.71-.77,1.86-3.89,2-6-2.75-3.38-5.8-7.86-2-12,3.11,1.73,4.92,5.33,8,7-5-4.64-6.27-10.62-7-17s-4.41-12.32,4-16c-3.8,11.4,9.27,15.68,13,24-3.82-2.51-6.41-7.14-11-8,4.07,3.19,7.64,9.18,13,10-.29-7.63-9.85-10.66-12-17-3-7.4-.91-14.74-5-22A7.87,7.87,0,0,0,183.66,60.22Z" transform="translate(-19.68 -29.07)"/><path class="cls-136" d="M195.66,79.22c3.68,6,17,8.94,18,16,1.5-9.22,1.22-12.47-3-21a6.9,6.9,0,0,1-1-2c-2.37-9.31-6.6-8.55-14-13-1.4-.84-2.31-1.85-4-2a7.17,7.17,0,0,1-1,0c4.09,7.26,2,14.6,5,22m6-6c-.27-2.77-2.22-5.07-2-8,3.93-.34,3.83,6.27,2,8m5,3c2,1.7,3.16,5.89-1,5,3.62,4.32-1,2.09-3,0C203.77,78.77,206,80,206.66,76.22Z" transform="translate(-19.68 -29.07)"/><path class="cls-137" d="M140.66,58.22c-2.35,3.49.66,9.68,4,12C143.5,66.15,141.11,62.5,140.66,58.22Z" transform="translate(-19.68 -29.07)"/><path class="cls-138" d="M164.66,60.22c1.44,1.86,4.34,3.4,6,5-.73-.94-2.17-4.9-4-7-.31-.24-1.59.19-2,0C164.84,58.64,164.51,59.77,164.66,60.22Z" transform="translate(-19.68 -29.07)"/><path class="cls-139" d="M107.66,60.22c-2.92,3.84,1.76,8.78,2,13C114.67,69.89,108.74,64.24,107.66,60.22Z" transform="translate(-19.68 -29.07)"/><path class="cls-140" d="M170.66,65.22c-1.66-1.6-4.56-3.14-6-5C165.65,63.1,169.56,64.62,170.66,65.22Z" transform="translate(-19.68 -29.07)"/><path class="cls-141" d="M74.66,62.22Z" transform="translate(-19.68 -29.07)"/><path class="cls-142" d="M103.66,112.22c-.65,1.76-2.77,2-3,3,0-.4,5.3,1.54,2,4,5.51-3.5,9.07-8.7,14.25-12.75s10.13,8.17,14.75,9.75c-3.4-5.9,14.11-8.29,16.25-13.75s9.55-13.65,14.75-17.25c-2.09-.1-3.58,2-5,3-2.5-1-5.5-3.55-8-2,.74-4.16-2-7.07-4-10,1.36,2.74,2.87,5.74,3,9-1.46-.55-2.18-2.4-4-2,.51,2,3,2.65,4,4-5.34,3.2-6.16-6.31-12-4-.51,2.2,3.93,4.24,1,6-3-1.77-5.78-6.2-8-11-2.06,2.46,1.22,6.56,0,10-3.41-1.43-4.41.35-6-3,.23,2.65-.17,5.35,0,8,3.4-1.91,5.14,4,7,6-3.32.35-3-4.37-6-5-.54,4.21,5.84,8.09,2,12-3.24-10.32-9.38-21.19-5-32-3.25,2-7.14-1-7-5,.58,4.7,2.87,11.71-2,17,6.31-1,2.57,6.12,5,10-2.52-1.16-5.67-2.68-5,2-5.35-.33-9.81-4-8-10-1.44,7.75-6.52-2.89-3.34-6.32s-4.74-13.5,2.34-13.68c-2.21-3.75-.57-3.27,1-6-5.65-1-4.08,4.09-7,6s-2,2.18,0,6c-2.8-2.54-4.16-3.34-5,1,4.48,2.73,1.71,11-5,11-.34,3.13,4.1,1.61,5,4-7.65,3.57,5.23,17.89,13,12C102.65,105.67,105.09,108.33,103.66,112.22Z" transform="translate(-19.68 -29.07)"/><path class="cls-143" d="M179.66,66.22c2.5-1,2.67-1.76,3-3C182,64.27,180.19,64.67,179.66,66.22Z" transform="translate(-19.68 -29.07)"/><path class="cls-144" d="M201.66,73.22c1.83-1.73,1.93-8.34-2-8C199.44,68.15,201.39,70.45,201.66,73.22Z" transform="translate(-19.68 -29.07)"/><path class="cls-145" d="M76.66,66.22Z" transform="translate(-19.68 -29.07)"/><path class="cls-146" d="M78.66,70.22c2.43-.39,3.66-2,5-4A23.13,23.13,0,0,1,78.66,70.22Z" transform="translate(-19.68 -29.07)"/><path class="cls-147" d="M144.66,83.22c1.82-.4,2.54,1.45,4,2-.13-3.26-1.64-6.26-3-9-1.09-3.78-5-5.68-7-9-2.55.39-3.85,2.85-6,0C132.77,75.83,138.84,78.49,144.66,83.22Z" transform="translate(-19.68 -29.07)"/><path class="cls-148" d="M121.66,74.22c-4.38,10.81,1.76,21.68,5,32,3.84-3.91-2.54-7.79-2-12,3,.63,2.68,5.35,6,5-1.86-2-3.6-7.91-7-6-.17-2.65.23-5.35,0-8a15.66,15.66,0,0,1,0-11,4.33,4.33,0,0,0,5-5C125.69,68.84,123,71.75,121.66,74.22Z" transform="translate(-19.68 -29.07)"/><path class="cls-149" d="M49.66,79.22c-2.83-2.24-6-9.28-10-8,8.08,4.91,2,13.4,6,20C52.43,88.58,45.51,82.17,49.66,79.22Z" transform="translate(-19.68 -29.07)"/><path class="cls-150" d="M189.66,108.22c4.14,5.09,8.6,5,15,5,2,1.55-.2,4.9,2,6a112.15,112.15,0,0,0,7-24c-1-7.06-14.32-10-18-16,2.15,6.34,11.71,9.37,12,17-5.36-.82-8.93-6.81-13-10,4.59.86,7.18,5.49,11,8-3.73-8.32-16.8-12.6-13-24-8.41,3.68-4.73,9.62-4,16s2,12.36,7,17c-3.08-1.67-4.89-5.27-8-7C183.86,100.36,186.91,104.84,189.66,108.22Z" transform="translate(-19.68 -29.07)"/><path class="cls-151" d="M209.66,72.22a6.9,6.9,0,0,0,1,2c.54-1.31,1.41-2.44,1-4A5.55,5.55,0,0,0,209.66,72.22Z" transform="translate(-19.68 -29.07)"/><path class="cls-152" d="M20.66,75.22v1c0,2,.11,4,0,6-.85,14.58,3.95,31.14,10,43,1.08,1.58,2.1,2.19,3,4,12,24.17,42.66,48.4,70,48,2.67,0,5.33,0,8,0,4.37,0,9.39.72,13,1,29.24,2.77,62.23-22.81,76-47,.51-2.66-2.2-8.08-3-11,.55,4.87-2.77,8.8-3,13-4.16-1.05-3.14-7.43-4-11-1.64,1-.59,3.61-2,5-1,4.65.21,10.14-3,14-1.79-1.11-.88-5.39-4-5-.07,2.52.93,7.25-3,7-1-4.63-3.34-9-3-14-2.43,4.33-1.95,12.82-7,15,.16-3.76-1.29-8.06-5-8-.29,1.53-.26.93-1,2-1.39,2-3.12,4.63-6,4-1.21,2.13,4.42,2.47,2,4-1.15,2.42-3,.42-4,4-.3,1.49,3.34,10.91,0,12-2.3.75-2.26-10.09-3.71-11.29s4.26-5.42-1.29-7.71c2.69,1.72,4-.84,1-2a22.73,22.73,0,0,0-5-1c-2.71-.33-4.18-.3-5,3-.2,1.34.7,7.86,1,10,.15,1,1.42,3,1,4-1.25,3.11-10.2.28-14,1s-11.47-.37-16,0-11.27-.28-16,0c8,4.18-8.77-.65-4-1,.21-1.81-.44-2.8,1-4,.54-3.08-1.28-7.8,1-10,.26-.25,1,0,1,0-.35-1.86-2.46-1.48-3-3,2.53-2.43,6-4.34,9-6,2-1.1,3.44-.38,4-4,1.48.51.69,5.94,3,3,2.68-1.57,1.47-5,0-7,1.83-2.2,4.19-4.87,6-7s4.16-6.41,6-6c6.2,1.37,11.56,12.21,17,15a2.89,2.89,0,0,1,1-1c-.53-2.51-6.22-7.22-8-9-1.94-1.66-4.11-3.38-6-5-1.74-1.48-4.06-2.83-5-5-4.51-.38-7.74,7.53-11.75,9.25s-7.36,8.62-12.25,8.75c-1.44,0-.85-1.4-2,0-.23.28-1,1-1,1,.5,1.6.85,1.78,2,3-.93,2.17-3,3.11-5,4,3.66,0,5.41,2.64,0,3-1.44,2.41,1.13,1.46,1,3-.2,2.44-1.41,2.92-2,5,.19.32.65.95,1,1,2.69.39-2.62,3-5,2,.08,1.26,2.06.56,2,2-.26,1.93-.3,1.44-2,2,.25.26,0,1,0,1,0,2.3,1,7.7-1,9a3,3,0,0,1-2,0c-3.54-2.3.84-11,0-13-1.54-3.12-5.11-1.69-8-2,3.57-2.65.45-6.21-1-10-.76.85,1.09,3.79-1,4-2.09-2.61.08-6.4-2-9-.71-2.27-3-4.91-2-8-1.87,1.07-1.57,4.38-4,5,.11-3.44-.15-7.44-2-10-.73,2-.54,5.14-3,6-.4-2.3-.46-5.37-2-7-1,3-1.34,8.76-6,8,.66-3.17-1.1-6.61-3-10-2.45,2.45.63,8-3,10-3.68-8.56-5.13-18-7-27-3.62,2.7,1,8.72-5,10,.68-6.76-3.35-12.3-3-19-.73-2.29-1.32-4.66-2-7-1.76-2.82-.73-7.43-4-10-.79.55-2.39,1.21-3,2m170,65c-33.52,49.22-116.6,47.16-149-3,18.12,21.09,44.17,37.13,73,38s57.22-13.4,76-35m-129,7c-4.81,3.82-5.52-3.23,0,0m14,9c-4.37-1.64-8.06-5.75-12-8,4.91-2.06,10.41,3.61,12,8m2,4c-3.72,3.57-4.42-2.85,0,0m39,10c-1.87,3.29-8.47,2.47-11,1,3.71-.7,7.37-2.42,11-1m16,1c-1.29.81-4.87,2.67-6,1C128.08,169.89,130.46,170.56,132.66,171.22Z" transform="translate(-19.68 -29.07)"/><path class="cls-153" d="M20.66,82.22c.11-2,0-4,0-6C18.78,78.62,20.65,80.14,20.66,82.22Z" transform="translate(-19.68 -29.07)"/><path class="cls-154" d="M206.66,76.22c-.66,3.76-2.89,2.55-4,5,2,2.09,6.62,4.32,3,0C209.82,82.11,208.68,77.92,206.66,76.22Z" transform="translate(-19.68 -29.07)"/><path class="cls-155" d="M173.66,122.22c.62,4.37,11.77,8.51,15,5,1.41-1.39.36-4,2-5,.86,3.57-.16,9.95,4,11,.23-4.2,3.55-8.13,3-13,.8,2.92,3.51,8.34,3,11a95.94,95.94,0,0,0,6-12c-2.2-1.1,0-4.45-2-6-6.4,0-10.86.09-15-5-.14,2.11.71,5.23-2,6-1.59-1.67-2.12-5.19-5-5,3.53-3.94.06-10.25,4-15-4.83-2-2.45-8-3-12-5.25,1.26,0,8.57-3.67,12.33s-1.3,8.24.67,11.67c-3.14-1.61-3.86.09-6,2-1.31-3.57-5.08-3.85-8-5-1.75,4.13.07,11,5,12-4.68-10.22,4.62,3.48,6,7C174.07,118.39,175.3,121.16,173.66,122.22Z" transform="translate(-19.68 -29.07)"/><path class="cls-156" d="M29.66,90.22c1.37,4.28,2.44,9.44,4,14,2.18-1.51,1.05-5.46,3-7,4.63,6.32,5.65,15.26,7,22,2.73-3.46,2.75-8.7,4-13,2.57,4.11,3,10.43,6,14,1.25-2.22,3.07-5.06,3-8,1.4,2.38,1.8,6,2,9,3.84.75.06-5.72,4-5,1.06,2.56.55,6.26,3,8,.67-2.56.38-6.06,2-8,2.07,5,.6,10.88,2,16,2.08,2.6-.09,6.39,2,9,2.09-.21.24-3.15,1-4,1-1.16,2.36-1.07,4-1,.68-2.44-6.13-3.58-3-6,1-1.48,2.84-.65,4,0,.45-2.31-2.53-3.07-3-5,.09.44,2.3-4.52,2-4,1.63-2.86,2.14-6.81,6-7,0,2.74,1.63,5.08,1,8,3.49-2.58,1.15-9.48,7-10,2.94,3.63-.19,8.58,3,11,0,.55,0,2.8,0,3,1.15-1.4.56,0,2,0,2.1-.7,3.28-5.76,6-6-1.21-1.4-1-3.26-1-5,.23-1,2.35-1.24,3-3-6.66,1.91-9.52-5.06-11-10-3.26,10-16.56-3.89-18-10-.53,3.85-6-.51-9,1,1.53-2.32,4.49.15,3-3-3.56,3.69-11.52-6.94-15.74-2.74s4.43,11.1-1.26,15.74c-11.38-1.21-3.34-23.46-16-17,.21,4,5.46,5.84,5,10-2.74-5-10-8.91-13-13C28.34,85.56,28.93,87.93,29.66,90.22Z" transform="translate(-19.68 -29.07)"/><path class="cls-157" d="M69.66,132.22c-1.4-5.12.07-11-2-16-1.62,1.94-1.33,5.44-2,8-2.45-1.74-1.94-5.44-3-8-3.94-.72-.16,5.75-4,5-.2-3-.6-6.62-2-9,.07,2.94-1.75,5.78-3,8-3-3.57-3.43-9.89-6-14-1.25,4.3-1.27,9.54-4,13-1.35-6.74-2.37-15.68-7-22-1.95,1.54-.82,5.49-3,7-1.56-4.56-2.63-9.72-4-14-.35,6.7,3.68,12.24,3,19,6-1.28,1.38-7.3,5-10,1.87,9,3.32,18.44,7,27,3.63-2,.55-7.55,3-10,1.9,3.39,3.66,6.83,3,10,4.66.76,5-5,6-8,1.54,1.63,1.6,4.7,2,7,2.46-.86,2.27-4,3-6,1.85,2.56,2.11,6.56,2,10,2.43-.62,2.13-3.93,4-5C66.61,127.31,69,130,69.66,132.22Z" transform="translate(-19.68 -29.07)"/><path class="cls-158" d="M216.66,90.22C213.77,94.13,217.87,96.49,216.66,90.22Z" transform="translate(-19.68 -29.07)"/><path class="cls-159" d="M149.66,112.22c2.91,2.89.36,9,2,12,2-1.77.53-5.48,1-8,1.18,6.48,2.14,15.83,1,22,1,3.64,1.66,4.6,0,8h5c2.42-1.53-3.21-1.87-2-4,2.88.63,4.61-2,6-4-.54.05-3.51-2.58-4-3,7.49,1.5,3.51-6.6,1-9,3.75,1.36,2.08-2.93,4-4v-1c.29-3.26-2.44-1-4-1,2.5-1.92,2.77-8.14-1-4,.36-2.63,4.19-11.51-1-7,1.84-4.12-1.3-5-1-9-5.24,1.84-7.07,9.46-4,14C151.39,114.34,150.89,112.14,149.66,112.22Z" transform="translate(-19.68 -29.07)"/><path class="cls-160" d="M213.66,104.22C211,106,214.63,108.34,213.66,104.22Z" transform="translate(-19.68 -29.07)"/><path class="cls-161" d="M100.66,115.22c0,1.74-.21,3.6,1,5-2.72.24-3.9,5.3-6,6,4.89-.13,8.24-7,12.25-8.75s7.24-9.63,11.75-9.25c2,.17,3.82,3.82,5,5,1.89,1.62,4.06,3.34,6,5,1.43,1.22,4.28,2,4.75,4.25s6,3.17,4.25,1.75c-1.2-2.91-6.27-4.46-4-8-1-.47-3.06.61-4,0-4.62-1.58-9.58-13.81-14.75-9.75s-8.74,9.25-14.25,12.75C106,116.76,100.61,114.82,100.66,115.22Z" transform="translate(-19.68 -29.07)"/><path class="cls-162" d="M124.66,113.22c-1.18-1.18-3-4.83-5-5C120.6,110.39,122.92,111.74,124.66,113.22Z" transform="translate(-19.68 -29.07)"/><path class="cls-163" d="M148.66,114.22a27.9,27.9,0,0,0,1,4s-.25.7,0,1c2.31,2.82-1.17,0-2,2a11.32,11.32,0,0,1,1,2,23,23,0,0,0,0,3c3.83-3,5.66,5.27,3,7a51.19,51.19,0,0,0-4-5c-.47,2-1.84-.79-3,0-.54,2.37,2.53,3,3,5,.25,1.06-.94,6.45-2,7a22.73,22.73,0,0,1,5,1c.2-1.5,3.87-4.16,2-7,1.6.53.72,2.75,1,4,1.14-6.17.18-15.52-1-22-.47,2.52,1,6.23-1,8-1.64-3,.91-9.11-2-12C148.61,112.28,148.77,111.74,148.66,114.22Z" transform="translate(-19.68 -29.07)"/><path class="cls-164" d="M76.66,121.22c1.47.83,3.25,2.07,3,4a4.53,4.53,0,0,0-3-1c-.53-.35-.38,4.87,2,4-2.53,3.44-.13,6.16,1,10,1.77-1.94,2.2-5.18,2-8,2.51,4.46-.36,11.16,2,16,4.27-.42,6.66-6.09,2-7,1.82.55,2.47-1.75,4-2,5.41-.36,3.66-3,0-3,2-.89,4.07-1.83,5-4-1.15-1.22-1.5-1.4-2-3-1.3-3.83.58-.66,1-4-3.19-2.42-.06-7.37-3-11-5.85.52-3.51,7.42-7,10,.63-2.92-1-5.26-1-8C78.8,114.41,78.29,118.36,76.66,121.22Z" transform="translate(-19.68 -29.07)"/><path class="cls-165" d="M114.66,119.22a9.12,9.12,0,0,1,2-1c1.11-.54,2.64-1.55,4-1,0-.25-3.46-3.8,0-4C118.82,112.81,116.53,117.05,114.66,119.22Z" transform="translate(-19.68 -29.07)"/><path class="cls-166" d="M120.66,117.22c.63,3.29,1.56,6.13-4,5v-4a9.12,9.12,0,0,0-2,1c-1.81,2.13-4.17,4.8-6,7,1.47,2,2.68,5.43,0,7,1.58.32,3.16-2,3,1a7.17,7.17,0,0,1,5,0c.67-1.74-.51-4.19,0-6,2.31-.16,6.34-.45,6,3,.5.55-.4,2.36,0,3,1.5-.85,3.21.16,4-1-1.19-3.86,1.22-6,5-5v7c2,.18,3.1,0,4,2,.08.19,1,0,1,0a4.22,4.22,0,0,0,3,1c-2.67-1.76-2.69-6.87-2-10-5.44-2.79-10.8-13.63-17-15C117.2,113.42,120.61,117,120.66,117.22Z" transform="translate(-19.68 -29.07)"/><path class="cls-167" d="M149.66,118.22a27.9,27.9,0,0,1-1-4C148.26,116.3,147.12,116.92,149.66,118.22Z" transform="translate(-19.68 -29.07)"/><path class="cls-168" d="M116.66,118.22v4c5.56,1.13,4.63-1.71,4-5C119.3,116.67,117.77,117.68,116.66,118.22Z" transform="translate(-19.68 -29.07)"/><path class="cls-169" d="M138.66,127.22c3.33.1,2.37-.75,1-3,1.74,1.42-3.77.52-4.25-1.75s-3.32-3-4.75-4.25C132.44,120,138.13,124.71,138.66,127.22Z" transform="translate(-19.68 -29.07)"/><path class="cls-170" d="M147.66,121.22c.83-2,4.31.82,2-2C147.12,119.38,146.69,119.27,147.66,121.22Z" transform="translate(-19.68 -29.07)"/><path class="cls-171" d="M163.66,121.22v1a21.45,21.45,0,0,1,0,3c2.3-3.61,3.18,1.67,4,4h-5c.14,2.9,1.42,4.81,1,7,3.71-.06,5.16,4.24,5,8,5.05-2.18,4.57-10.67,7-15-.34,5,2,9.37,3,14,3.93.25,2.93-4.48,3-7,3.12-.39,2.21,3.89,4,5,3.21-3.86,2-9.35,3-14-3.23,3.51-14.38-.63-15-5-.87,4.83-5.81-.87-7-3C166.15,120.45,164.3,120.61,163.66,121.22Z" transform="translate(-19.68 -29.07)"/><path class="cls-172" d="M74.66,125.22a7.63,7.63,0,0,1,2-1,4.53,4.53,0,0,1,3,1c.25-1.93-1.53-3.17-3-4C77,120.7,74.75,125.66,74.66,125.22Z" transform="translate(-19.68 -29.07)"/><path class="cls-173" d="M162.66,138.22c.74-1.07.71-.47,1-2,.42-2.19-.86-4.1-1-7-.09-1.79.78-2.45,1-4a21.45,21.45,0,0,0,0-3c-1.92,1.07-.25,5.36-4,4,2.51,2.4,6.49,10.5-1,9C159.15,135.64,162.12,138.27,162.66,138.22Z" transform="translate(-19.68 -29.07)"/><path class="cls-174" d="M92.66,127.22s.77-.72,1-1c0-.2,0-2.45,0-3C93.24,126.56,91.36,123.39,92.66,127.22Z" transform="translate(-19.68 -29.07)"/><path class="cls-175" d="M147.66,127.22a5.17,5.17,0,0,1,1-1,23,23,0,0,1,0-3C148.63,124.52,146.46,125.74,147.66,127.22Z" transform="translate(-19.68 -29.07)"/><path class="cls-176" d="M163.66,125.22c-.22,1.55-1.09,2.21-1,4h5C166.84,126.89,166,121.61,163.66,125.22Z" transform="translate(-19.68 -29.07)"/><path class="cls-177" d="M74.66,125.22c.47,1.93,3.45,2.69,3,5-1.16-.65-3-1.48-4,0-.39,2.29,2.07,3.41,4,3-2.4,6.09,3.78,10.22,6,15,1-2.37,5,.46,6-2-.35-.05-.81-.68-1-1-.88-1.51,1.65-3.3,2-5,.13-1.54-2.44-.59-1-3-1.53.25-2.18,2.55-4,2,4.66.91,2.27,6.58-2,7-2.36-4.84.51-11.54-2-16,.2,2.82-.23,6.06-2,8-1.13-3.84-3.53-6.56-1-10-2.38.87-2.53-4.35-2-4A7.63,7.63,0,0,0,74.66,125.22Z" transform="translate(-19.68 -29.07)"/><path class="cls-178" d="M33.66,129.22c-.9-1.81-1.92-2.42-3-4C31.5,126.87,32.8,127.86,33.66,129.22Z" transform="translate(-19.68 -29.07)"/><path class="cls-179" d="M148.66,126.22a5.17,5.17,0,0,0-1,1s-.23.65,0,1a51.19,51.19,0,0,1,4,5C154.32,131.49,152.49,123.18,148.66,126.22Z" transform="translate(-19.68 -29.07)"/><path class="cls-180" d="M116.66,134.22c-.2.51-.71.8-3,1,3.29,1.4,6,.32,9,0-2.33-1.24.16-3.24,0-4,.34-3.45-3.69-3.16-6-3C116.15,130,117.33,132.48,116.66,134.22Z" transform="translate(-19.68 -29.07)"/><path class="cls-181" d="M126.66,133.22c-.15-.5,1.47,2.34,1,2,1.31,0,2.69-.12,4,0v-7C127.88,127.23,125.47,129.36,126.66,133.22Z" transform="translate(-19.68 -29.07)"/><path class="cls-182" d="M72.66,137.22c1.45,3.79,4.57,7.35,1,10,2.89.31,6.46-1.12,8,2,1.73,3.5-1.59,9.42,0,13a3,3,0,0,0,2,0c1.3-2.92-1-6.35,1-9,0,0,.25-.74,0-1-1.76-1.82,1.33-1.17,2-2,.06-1.44-1.92-.74-2-2,2.38,1,7.69-1.61,5-2-1,2.46-5-.37-6,2-2.22-4.78-8.4-8.91-6-15-1.93.41-4.39-.71-4-3-3.13,2.42,3.68,3.56,3,6C75,136.15,73.69,136.06,72.66,137.22Z" transform="translate(-19.68 -29.07)"/><path class="cls-183" d="M101.66,134.22c.33,0,.77.95,1,1,2.7.6,6.23,0,9,0-.23-.34,0-1,0-1,.16-3-1.42-.68-3-1-2.31,2.94-1.52-2.49-3-3C105.1,133.84,103.64,133.12,101.66,134.22Z" transform="translate(-19.68 -29.07)"/><path class="cls-184" d="M122.66,135.22a49.05,49.05,0,0,1,5,0c.47.34-1.15-2.5-1-2-.79,1.16-2.5.15-4,1-.4-.64.5-2.45,0-3C122.82,132,120.33,134,122.66,135.22Z" transform="translate(-19.68 -29.07)"/><path class="cls-185" d="M111.66,134.22s-.23.66,0,1c.5,0,1.5,0,2,0,2.29-.2,2.8-.49,3-1A7.17,7.17,0,0,0,111.66,134.22Z" transform="translate(-19.68 -29.07)"/><path class="cls-186" d="M139.66,138.22a4.22,4.22,0,0,1-3-1,14.79,14.79,0,0,1,2,3h-4c-12.36,1.64-26.51-1.67-38-1-1.3.59-2.42,1.35-4,1,.54,1.52,2.65,1.14,3,3,2.31-.22,4.68.16,7,0-1.43,1.25-3.77,2.4-3,5,0-.09,3.74,1.26,2,3,.61,1.62-3.88,1.2-6,1,5.17,3.83,15.3-.07,22,1s16.5-.13,23-1c-.34-2.39-.58-6.67,0-9,.82-3.3,2.29-3.33,5-3,1.06-.55,2.25-5.94,2-7-3.58-.74-2.74,1.9-2,4-2,1.59-4.08,1.21-6,1m-35,4c1-.29,5.12-.45,6,0,1.41.73-1,7.08,0,9-2.84-2.75-3.69.86-8,0a12.11,12.11,0,0,1,2-9m18,10c-.35-.05-1-.67-1-1-1.33,0-2.67,0-4,0v-6c-2.36,2.36.65,9.44-6,7v-9h28v9Z" transform="translate(-19.68 -29.07)"/><path class="cls-187" d="M92.66,140.22c1.58.35,2.7-.41,4-1s5.25-2.75,6-4c-.23-.05-.67-1-1-1C98.67,135.88,95.19,137.79,92.66,140.22Z" transform="translate(-19.68 -29.07)"/><path class="cls-188" d="M150.66,141.22c3,1.16,1.69,3.72-1,2,5.55,2.29-.16,6.51,1.29,7.71s1.41,12,3.71,11.29c.81-3.77-1.07-8.31,0-12s2.85-1.58,4-4h-5c1.66-3.4,1-4.36,0-8-.28-1.25.6-3.47-1-4C154.53,137.06,150.86,139.72,150.66,141.22Z" transform="translate(-19.68 -29.07)"/><path class="cls-189" d="M96.66,139.22c11.49-.67,25.64,2.64,38,1,1.53-.63,1.79-1.55,1-3-.9-2-2-1.82-4-2-1.31-.12-2.69,0-4,0a49.05,49.05,0,0,0-5,0c-3,.32-5.71,1.4-9,0-.5,0-1.5,0-2,0-2.77,0-6.3.6-9,0C101.91,136.47,98.05,138.58,96.66,139.22Z" transform="translate(-19.68 -29.07)"/><path class="cls-190" d="M190.66,140.22c-18.77,21.59-47.16,35.86-76,35s-54.89-16.9-73-38C74.06,187.38,157.14,189.44,190.66,140.22Z" transform="translate(-19.68 -29.07)"/><path class="cls-191" d="M134.66,140.22h4a14.79,14.79,0,0,0-2-3s-.92.19-1,0C136.45,138.67,136.19,139.59,134.66,140.22Z" transform="translate(-19.68 -29.07)"/><path class="cls-192" d="M88.66,145.22c.59-2.08,1.8-2.56,2-5C90.31,141.92,87.78,143.71,88.66,145.22Z" transform="translate(-19.68 -29.07)"/><path class="cls-193" d="M110.66,142.22c-1,1.43-5,1.69-6,0a12.11,12.11,0,0,0-2,9c4.31.86,5.16-2.75,8,0C109.65,149.3,112.07,143,110.66,142.22Z" transform="translate(-19.68 -29.07)"/><path class="cls-194" d="M110.66,142.22c-.88-.45-5-.29-6,0C105.62,143.91,109.63,143.65,110.66,142.22Z" transform="translate(-19.68 -29.07)"/><path d="M93.66,153.22c.28-.23.74-.88,1-1,.42-2.93-.27-6,0-9C92.38,145.42,94.2,150.14,93.66,153.22Z" transform="translate(-19.68 -29.07)"/><path class="cls-195" d="M94.66,152.22a1.63,1.63,0,0,1,1,0c2.12.2,6.61.62,6-1-1.69,1.69-2-2.55-2-3-.77-2.6,1.57-3.75,3-5-2.32.16-4.69-.22-7,0,0,0-.74-.25-1,0C94.39,146.18,95.08,149.29,94.66,152.22Z" transform="translate(-19.68 -29.07)"/><path class="cls-196" d="M117.66,145.22c4.16-4.16,6.24,3.84,5,7h17v-9h-28v9c6.65,2.44,3.64-4.64,6-7m17,0c2.75,2.75-2.37,8.95-5.67,5.67S131.93,142.49,134.66,145.22Z" transform="translate(-19.68 -29.07)"/><path d="M140.66,152.22c.05.35.82.73,1,1-.3-2.14-1.2-8.66-1-10C140.08,145.55,140.32,149.83,140.66,152.22Z" transform="translate(-19.68 -29.07)"/><path class="cls-197" d="M117.66,145.22c.67-.67,3.18.51,4,0v6c0,.33.65.95,1,1C123.9,149.06,121.82,141.06,117.66,145.22Z" transform="translate(-19.68 -29.07)"/><path class="cls-198" d="M121.66,151.22v-6c-.82.51-3.33-.67-4,0v6C119,151.25,120.33,151.19,121.66,151.22Z" transform="translate(-19.68 -29.07)"/><path class="cls-199" d="M134.66,145.22c-2.73-2.73-9,2.39-5.67,5.67S137.41,148,134.66,145.22Z" transform="translate(-19.68 -29.07)"/><path class="cls-200" d="M61.66,147.22C56.14,144,56.85,151,61.66,147.22Z" transform="translate(-19.68 -29.07)"/><path class="cls-201" d="M75.66,156.22c-1.59-4.39-7.09-10.06-12-8C67.6,150.47,71.29,154.58,75.66,156.22Z" transform="translate(-19.68 -29.07)"/><path class="cls-202" d="M101.66,151.22c1.74-1.74-2-3.09-2-3C99.68,148.67,100,152.91,101.66,151.22Z" transform="translate(-19.68 -29.07)"/><path d="M81.66,162.22c-1.59-3.58,1.73-9.5,0-13C82.5,151.24,78.12,159.92,81.66,162.22Z" transform="translate(-19.68 -29.07)"/><path class="cls-203" d="M84.66,152.22c1.7-.56,1.74-.07,2-2C86,151.05,82.9,150.4,84.66,152.22Z" transform="translate(-19.68 -29.07)"/><path class="cls-204" d="M154.66,162.22c3.34-1.09-.3-10.51,0-12C153.59,153.91,155.47,158.45,154.66,162.22Z" transform="translate(-19.68 -29.07)"/><path class="cls-205" d="M93.66,153.22c-1.44,1.2-.79,2.19-1,4,16.09-3,33.76,2.28,50,0,.42-1-.85-3-1-4-.18-.27-.95-.65-1-1-6.5.87-16.3,2.07-23,1s-16.83,2.83-22-1a1.63,1.63,0,0,0-1,0C94.4,152.34,93.94,153,93.66,153.22Z" transform="translate(-19.68 -29.07)"/><path d="M83.66,162.22c2-1.3,1-6.7,1-9C82.7,155.87,85,159.3,83.66,162.22Z" transform="translate(-19.68 -29.07)"/><path class="cls-206" d="M142.66,157.22c-16.24,2.28-33.91-3-50,0-4.77.35,12,5.18,4,1,4.73-.28,11.47.37,16,0s12.2.72,16,0S141.41,160.33,142.66,157.22Z" transform="translate(-19.68 -29.07)"/><path class="cls-207" d="M77.66,160.22C73.24,157.37,73.94,163.79,77.66,160.22Z" transform="translate(-19.68 -29.07)"/><path class="cls-208" d="M116.66,170.22c-3.63-1.42-7.29.3-11,1C108.19,172.69,114.79,173.51,116.66,170.22Z" transform="translate(-19.68 -29.07)"/><path class="cls-209" d="M132.66,171.22c-2.2-.66-4.58-1.33-6,1C127.79,173.89,131.37,172,132.66,171.22Z" transform="translate(-19.68 -29.07)"/><path class="cls-210" d="M111.66,178.22a8.34,8.34,0,0,1,0-1c-2.67,0-5.33,0-8,0C105.77,177.43,108.77,178.48,111.66,178.22Z" transform="translate(-19.68 -29.07)"/><path class="cls-211" d="M111.66,178.22c3.93.35,8,0,12,0a5.74,5.74,0,0,1,1,0c-3.61-.28-8.63-1-13-1A8.34,8.34,0,0,0,111.66,178.22Z" transform="translate(-19.68 -29.07)"/><path class="cls-212" d="M123.66,178.22c-4,0-8.07.35-12,0C114.88,178.53,120.35,180.67,123.66,178.22Z" transform="translate(-19.68 -29.07)"/><path class="cls-213" d="M122.66,180.22c-3.18.53-7.57-1.13-10,1C115.84,180.69,120.23,182.35,122.66,180.22Z" transform="translate(-19.68 -29.07)"/></svg>